<svg xmlns="http://www.w3.org/2000/svg" width="351" height="181" viewBox="0 0 351 181" version="1.1">
	<path d="M 85 0.966 C 85 1.497, 85.728 3.458, 86.617 5.323 L 88.234 8.714 102.867 8.893 C 110.915 8.991, 120.425 9.481, 124 9.981 C 127.575 10.481, 150.300 11.099, 174.500 11.355 C 198.700 11.611, 222.550 12.078, 227.500 12.394 C 232.450 12.710, 242.800 13.206, 250.500 13.497 C 281.126 14.653, 307.803 16.131, 313.500 16.987 C 316.800 17.484, 326.587 18.197, 335.250 18.574 L 351 19.258 351 9.629 L 351 0 218 0 C 133.114 0, 85 0.349, 85 0.966 M 114.848 22.746 C 106.411 22.954, 101.877 23.465, 101.238 24.279 C 100.277 25.504, 96 37.682, 96 39.194 C 96 40.610, 134.617 40.178, 135.721 38.750 C 136.253 38.063, 137.464 34.659, 138.413 31.186 C 140.609 23.153, 139.810 21.913, 132.628 22.217 C 129.807 22.337, 121.807 22.575, 114.848 22.746 M 143 23.499 C 141.515 25.290, 138.752 37.790, 139.556 39.090 C 140.283 40.268, 163.707 40.283, 164.434 39.107 C 165.967 36.626, 167.789 24.451, 166.805 23.265 C 165.184 21.311, 144.648 21.514, 143 23.499 M 170.722 23.755 C 169.605 24.989, 168.985 27.803, 168.789 32.536 L 168.500 39.500 180 39.752 C 186.325 39.890, 192.088 39.623, 192.807 39.157 C 193.672 38.598, 194.180 35.635, 194.307 30.406 L 194.500 22.500 183.433 22.219 C 173.788 21.974, 172.155 22.171, 170.722 23.755 M 198.163 23.719 C 197.645 24.698, 197.059 28.650, 196.861 32.500 L 196.500 39.500 208.358 39.783 C 223.154 40.135, 223.171 40.124, 222.789 30.095 L 222.500 22.500 210.802 22.219 C 200.430 21.969, 198.997 22.139, 198.163 23.719 M 226.102 23.377 C 225.349 24.285, 225.018 27.524, 225.204 32.158 L 225.500 39.500 238 39.500 L 250.500 39.500 250.500 31 L 250.500 22.500 238.898 22.220 C 229.770 21.999, 227.041 22.246, 226.102 23.377 M 254.074 23.411 C 253.245 24.410, 253.136 26.967, 253.701 32.161 L 254.500 39.500 267.500 39.500 L 280.500 39.500 280.144 32 C 279.949 27.875, 279.331 23.938, 278.772 23.250 C 277.245 21.373, 255.648 21.514, 254.074 23.411 M 282.236 23.250 C 281.311 24.396, 282.178 35.252, 283.474 38.750 C 283.812 39.663, 287.477 40, 297.070 40 L 310.203 40 309.487 32.750 C 308.389 21.628, 308.887 22, 295.087 22 C 286.818 22, 282.941 22.377, 282.236 23.250 M 310.994 23.507 C 310.036 24.661, 309.999 26.006, 310.833 29.257 C 311.433 31.591, 312.195 34.935, 312.528 36.690 C 313 39.181, 313.721 39.970, 315.816 40.290 C 317.292 40.516, 314.675 40.775, 310 40.865 C 298.618 41.087, 298.588 41.113, 299.449 50.303 C 300.416 60.621, 300.674 60.851, 311.653 61.205 C 320.493 61.490, 320.740 61.561, 318.903 63.289 C 317.856 64.273, 317.001 65.173, 317.001 65.289 C 317.019 68.072, 320.270 82.620, 321.096 83.616 C 322.659 85.499, 347.249 85.618, 348.779 83.750 C 349.489 82.884, 349.249 79.960, 347.999 74.226 C 345.337 62.013, 346.503 63.009, 334.781 62.932 C 326.639 62.879, 324.968 62.639, 326.750 61.780 C 327.988 61.183, 328.999 60.201, 328.999 59.597 C 328.995 56.335, 326.051 43.767, 324.992 42.490 C 323.934 41.215, 324.296 41, 327.500 41 C 330.736 41, 331.074 41.206, 329.984 42.519 C 328.403 44.424, 330.522 58.379, 332.727 60.584 C 333.724 61.581, 336.636 62, 342.571 62 L 351 62 351 42 L 351 22 346.250 22.015 C 338.635 22.040, 338.266 22.620, 340.423 31.188 C 341.435 35.210, 342.965 39.063, 343.823 39.750 C 345.150 40.813, 344.897 41, 342.132 41 C 340.137 41, 339.130 40.598, 339.525 39.960 C 340.354 38.619, 338.085 24.889, 336.763 23.250 C 335.185 21.293, 312.645 21.518, 310.994 23.507 M 95.200 27.700 C 93.720 32.522, 94.436 33.238, 96 28.500 C 96.660 26.501, 97.005 24.672, 96.767 24.434 C 96.530 24.196, 95.824 25.666, 95.200 27.700 M 265.500 27 C 265.101 27.646, 265.224 28.624, 265.774 29.174 C 266.441 29.841, 267.016 29.783, 267.500 29 C 267.899 28.354, 267.776 27.376, 267.226 26.826 C 266.559 26.159, 265.984 26.217, 265.500 27 M 294.015 27.250 C 294.005 28.426, 294.738 28.974, 296.250 28.921 C 297.753 28.868, 298.002 28.653, 297 28.271 C 296.175 27.957, 295.169 27.205, 294.765 26.600 C 294.312 25.922, 294.025 26.171, 294.015 27.250 M 153 28.059 C 153 28.641, 153.450 28.840, 154 28.500 C 154.550 28.160, 155 27.684, 155 27.441 C 155 27.198, 154.550 27, 154 27 C 153.450 27, 153 27.477, 153 28.059 M 181.333 27.667 C 181.700 28.033, 182.300 28.033, 182.667 27.667 C 183.033 27.300, 182.733 27, 182 27 C 181.267 27, 180.967 27.300, 181.333 27.667 M 207 28 C 207 28.550, 208.463 28.993, 210.250 28.985 C 212.716 28.973, 213.138 28.736, 212 28 C 210.035 26.730, 207 26.730, 207 28 M 239 28 C 239 28.733, 239.300 29.033, 239.667 28.667 C 240.033 28.300, 240.033 27.700, 239.667 27.333 C 239.300 26.967, 239 27.267, 239 28 M 323.577 27.875 C 323.280 28.356, 324.201 28.750, 325.625 28.750 C 327.454 28.750, 327.816 28.498, 326.857 27.890 C 325.117 26.788, 324.251 26.784, 323.577 27.875 M 82.512 65.012 C 76.605 82.663, 71.936 97.266, 72.136 97.464 C 72.336 97.661, 77.385 83.436, 83.357 65.851 C 89.328 48.267, 93.997 33.663, 93.732 33.399 C 93.468 33.135, 88.419 47.360, 82.512 65.012 M 101.420 34.871 C 101.959 35.742, 107.888 35.445, 108.833 34.500 C 109.108 34.225, 107.432 34, 105.108 34 C 102.784 34, 101.124 34.392, 101.420 34.871 M 181.333 34.667 C 181.700 35.033, 182.300 35.033, 182.667 34.667 C 183.033 34.300, 182.733 34, 182 34 C 181.267 34, 180.967 34.300, 181.333 34.667 M 265.750 34.662 C 266.438 34.940, 267.563 34.940, 268.250 34.662 C 268.938 34.385, 268.375 34.158, 267 34.158 C 265.625 34.158, 265.063 34.385, 265.750 34.662 M 295.813 34.683 C 296.534 34.972, 297.397 34.936, 297.729 34.604 C 298.061 34.272, 297.471 34.036, 296.417 34.079 C 295.252 34.127, 295.015 34.364, 295.813 34.683 M 182.590 42.405 C 180.711 43.910, 178.745 57.988, 180.173 59.709 C 181.441 61.236, 202.612 61.531, 204.946 60.055 C 206.440 59.109, 208.422 44.492, 207.302 42.679 C 206.986 42.169, 203.690 41.968, 199.976 42.234 C 196.262 42.500, 191.139 42.401, 188.591 42.014 C 185.685 41.573, 183.448 41.719, 182.590 42.405 M 211.259 42.250 C 210.717 42.938, 209.994 46.975, 209.652 51.223 C 209.092 58.174, 209.222 59.048, 210.949 59.973 C 213.706 61.448, 234.295 61.305, 235.800 59.800 C 236.523 59.077, 237 55.578, 237 51 C 237 46.422, 236.523 42.923, 235.800 42.200 C 234.103 40.503, 212.602 40.547, 211.259 42.250 M 240.035 42.934 C 238.453 45.890, 238.718 58.521, 240.391 59.909 C 241.320 60.680, 245.882 60.970, 254.141 60.782 L 266.500 60.500 266.396 52.279 C 266.254 41.008, 266.244 41, 252.413 41 C 242.222 41, 240.965 41.196, 240.035 42.934 M 269.978 42.527 C 268.733 44.027, 269.187 57.876, 270.554 60.087 C 271.327 61.338, 296.719 61.264, 297.495 60.008 C 298.372 58.589, 296.191 43.935, 294.865 42.337 C 293.166 40.290, 271.699 40.453, 269.978 42.527 M 95.086 43.396 C 93.533 45.267, 89.008 59.204, 89.628 60.207 C 90.271 61.248, 113.124 61.208, 114.769 60.164 C 116.056 59.347, 120 46.973, 120 43.753 C 120 42.181, 118.776 42, 108.122 42 C 99.176 42, 95.959 42.345, 95.086 43.396 M 124.126 43.348 C 122.536 45.264, 118.801 58.870, 119.538 60.062 C 120.252 61.216, 142.996 61.289, 144.803 60.143 C 146.226 59.240, 148.907 49.233, 148.964 44.611 L 149 41.721 143.863 42.330 C 141.037 42.664, 137.887 43.697, 136.863 44.624 C 135.838 45.551, 135 45.849, 135 45.286 C 135 44.723, 133.537 44.016, 131.750 43.716 C 129.963 43.416, 127.785 42.886, 126.910 42.540 C 126.036 42.193, 124.783 42.557, 124.126 43.348 M 152.517 43 C 152.355 43.275, 151.441 47.039, 150.486 51.363 C 149.024 57.981, 148.967 59.365, 150.124 60.098 C 151.925 61.239, 173.089 61.230, 174.893 60.087 C 176.330 59.177, 177.836 52.191, 177.940 45.947 L 178 42.394 165.405 42.447 C 158.478 42.476, 152.678 42.725, 152.517 43 M 163 45.333 C 163 47.214, 163.962 47.952, 165.598 47.324 C 167.725 46.508, 167.274 44, 165 44 C 163.900 44, 163 44.600, 163 45.333 M 193.469 45.050 C 192.519 46.588, 193.820 47.580, 195.104 46.296 C 195.822 45.578, 195.839 45.019, 195.156 44.597 C 194.596 44.251, 193.837 44.455, 193.469 45.050 M 222.597 44.844 C 222.251 45.404, 222.455 46.163, 223.050 46.531 C 224.588 47.481, 225.580 46.180, 224.296 44.896 C 223.578 44.178, 223.019 44.161, 222.597 44.844 M 251.500 46 C 251.840 46.550, 252.793 47, 253.618 47 C 254.443 47, 254.840 46.550, 254.500 46 C 254.160 45.450, 253.207 45, 252.382 45 C 251.557 45, 251.160 45.450, 251.500 46 M 312 46.500 C 312 47.325, 312.730 48, 313.622 48 C 314.951 48, 315.020 47.729, 314 46.500 C 313.315 45.675, 312.585 45, 312.378 45 C 312.170 45, 312 45.675, 312 46.500 M 343 46 C 343 46.733, 343.300 47.033, 343.667 46.667 C 344.033 46.300, 344.033 45.700, 343.667 45.333 C 343.300 44.967, 343 45.267, 343 46 M 162 51.393 C 162 51.609, 162.675 52.045, 163.500 52.362 C 164.325 52.678, 165 52.501, 165 51.969 C 165 51.436, 164.325 51, 163.500 51 C 162.675 51, 162 51.177, 162 51.393 M 193.015 51.750 C 193.024 52.163, 193.467 53.175, 194 54 C 194.784 55.213, 194.972 55.069, 194.985 53.250 C 194.993 52.013, 194.550 51, 194 51 C 193.450 51, 193.007 51.337, 193.015 51.750 M 222.295 52.513 C 221.345 53.543, 221.428 53.950, 222.688 54.434 C 224.751 55.225, 225.403 54.534, 224.342 52.678 C 223.651 51.471, 223.283 51.441, 222.295 52.513 M 252 51.571 C 252 51.886, 252.675 52.818, 253.500 53.643 C 255.128 55.271, 255.332 55.029, 254.393 52.582 C 253.823 51.095, 252 50.326, 252 51.571 M 282.074 52.411 C 281.383 53.244, 281.286 54.059, 281.838 54.400 C 282.352 54.718, 283.007 54.083, 283.293 52.989 C 283.909 50.632, 283.651 50.510, 282.074 52.411 M 133.333 52.667 C 133.700 53.033, 134.300 53.033, 134.667 52.667 C 135.033 52.300, 134.733 52, 134 52 C 133.267 52, 132.967 52.300, 133.333 52.667 M 314 53.500 C 314 54.325, 314.177 55, 314.393 55 C 314.609 55, 315.045 54.325, 315.362 53.500 C 315.678 52.675, 315.501 52, 314.969 52 C 314.436 52, 314 52.675, 314 53.500 M 343 53.368 C 343 54.201, 343.450 55.160, 344 55.500 C 344.550 55.840, 345.007 55.529, 345.015 54.809 C 345.027 53.849, 345.308 53.900, 346.069 55 C 346.927 56.239, 347.053 56.154, 346.792 54.511 C 346.418 52.153, 343 51.122, 343 53.368 M 284.333 54.456 C 284.333 55.257, 284.716 55.676, 285.183 55.387 C 285.650 55.098, 285.774 54.443, 285.457 53.931 C 284.649 52.623, 284.333 52.770, 284.333 54.456 M 162.333 54.667 C 162.700 55.033, 163.300 55.033, 163.667 54.667 C 164.033 54.300, 163.733 54, 163 54 C 162.267 54, 161.967 54.300, 162.333 54.667 M 194.626 63.517 C 193.260 64.883, 191.370 81.703, 192.460 82.794 C 192.780 83.114, 198.585 83.556, 205.360 83.777 C 221.099 84.290, 221.190 84.222, 220.787 72.249 L 220.500 63.715 210 63.325 C 204.225 63.110, 198.705 62.764, 197.732 62.556 C 196.760 62.348, 195.362 62.781, 194.626 63.517 M 225.200 63.200 C 224.439 63.961, 224 67.796, 224 73.681 C 224 84.779, 223.110 84.216, 240 83.790 L 251.500 83.500 251.789 74.149 C 251.975 68.114, 251.666 64.302, 250.916 63.399 C 249.386 61.555, 227.019 61.381, 225.200 63.200 M 256.200 63.200 C 254.579 64.821, 254.579 81.179, 256.200 82.800 C 257.796 84.396, 283.670 84.490, 284.199 82.902 C 285.214 79.859, 282.966 64.448, 281.333 63.254 C 279.020 61.563, 257.882 61.518, 256.200 63.200 M 287.274 63.537 C 285.574 64.786, 286.530 81.392, 288.387 82.866 C 289.974 84.125, 314.205 85.236, 315.889 84.126 C 317.059 83.354, 317.078 81.900, 316.005 74.855 C 314.122 62.485, 314.981 63.168, 300.840 62.809 C 293.516 62.623, 288.126 62.912, 287.274 63.537 M 88.256 64.250 C 86.977 65.867, 81.660 81.993, 82.221 82.554 C 83.019 83.353, 124.289 83.111, 125.070 82.303 C 126.184 81.151, 130.006 64.819, 129.394 63.829 C 128.513 62.404, 89.400 62.804, 88.256 64.250 M 156.130 65.078 C 154.827 66.143, 152.008 67.295, 149.866 67.637 C 146.809 68.126, 146.204 68.541, 147.055 69.566 C 148.722 71.574, 146.546 74.956, 144.013 74.293 C 141.776 73.708, 141.352 71.048, 143.200 69.200 C 144.064 68.336, 144.081 68, 143.259 68 C 142.631 68, 141.840 68.450, 141.500 69 C 140.533 70.564, 137 70.172, 137 68.500 C 137 67.675, 136.550 67, 136 67 C 135.450 67, 135 66.287, 135 65.417 C 135 64.546, 134.438 64.018, 133.750 64.244 C 132.258 64.734, 128.295 81.633, 129.413 82.735 C 129.840 83.156, 135.857 83.433, 142.784 83.352 C 157.573 83.178, 157.169 83.452, 158.954 72.386 C 160.318 63.932, 159.649 62.203, 156.130 65.078 M 163.480 64.250 C 162.038 68.188, 160.140 81.540, 160.912 82.312 C 161.955 83.355, 187.157 83.259, 188.157 82.208 C 189.268 81.040, 190.934 64.568, 190.034 63.650 C 189.575 63.183, 188.255 63.745, 187.100 64.900 C 184.104 67.896, 171.492 67.961, 167.727 65 C 164.761 62.667, 164.102 62.551, 163.480 64.250 M 349.339 64.559 C 349.010 65.416, 349.195 68.004, 349.750 70.309 L 350.760 74.500 350.880 68.750 C 351 63.021, 350.476 61.597, 349.339 64.559 M 172.015 70.250 C 172.043 72.524, 174.070 74.706, 174.697 73.137 C 175.157 71.986, 175.382 71.986, 176.140 73.137 C 176.867 74.240, 177.320 74.130, 178.519 72.559 C 180.240 70.303, 180.416 69, 179 69 C 178.450 69, 177.993 69.563, 177.985 70.250 C 177.974 71.086, 177.643 71.003, 176.985 70 C 176.109 68.667, 175.891 68.667, 175.015 70 C 174.357 71.003, 174.026 71.086, 174.015 70.250 C 174.007 69.563, 173.550 69, 173 69 C 172.450 69, 172.007 69.563, 172.015 70.250 M 205.667 69.667 C 204.729 70.604, 204.834 74, 205.800 74 C 206.240 74, 206.600 72.875, 206.600 71.500 C 206.600 68.724, 206.603 68.730, 205.667 69.667 M 143.638 71.500 C 143.288 72.414, 143.637 73, 144.531 73 C 145.339 73, 146 72.325, 146 71.500 C 146 70.675, 145.598 70, 145.107 70 C 144.616 70, 143.955 70.675, 143.638 71.500 M 238.564 71.707 C 238.022 73.132, 238.136 73.247, 239.124 72.267 C 239.808 71.588, 240.115 70.781, 239.807 70.474 C 239.499 70.166, 238.940 70.721, 238.564 71.707 M 300.076 71.727 C 300.823 72.702, 301.561 73.688, 301.717 73.917 C 301.873 74.146, 302 73.631, 302 72.774 C 302 71.916, 301.261 70.931, 300.359 70.584 C 298.930 70.036, 298.893 70.184, 300.076 71.727 M 236 72 C 236 72.733, 236.300 73.033, 236.667 72.667 C 237.033 72.300, 237.033 71.700, 236.667 71.333 C 236.300 70.967, 236 71.267, 236 72 M 334.638 73.500 C 334.322 74.325, 334.499 75, 335.031 75 C 335.564 75, 336 74.325, 336 73.500 C 336 72.675, 335.823 72, 335.607 72 C 335.391 72, 334.955 72.675, 334.638 73.500 M 331.500 74 C 331.840 74.550, 332.343 75, 332.618 75 C 332.893 75, 332.840 74.550, 332.500 74 C 332.160 73.450, 331.657 73, 331.382 73 C 331.107 73, 331.160 73.450, 331.500 74 M 87.503 75.830 C 86.080 77.254, 87.454 78, 91.500 78 C 94.824 78, 96 77.610, 96 76.507 C 96 75.073, 88.832 74.502, 87.503 75.830 M 80.147 87.750 C 78.143 91.546, 73.975 106.372, 74.714 107.072 C 75.770 108.070, 125.183 108.706, 126.670 107.740 C 128.105 106.809, 132.400 88.456, 131.517 87.027 C 131.110 86.369, 121.942 86, 105.976 86 C 83.275 86, 80.989 86.155, 80.147 87.750 M 161.767 87.782 C 161.439 89.038, 159.761 90.087, 156.883 90.836 C 151.005 92.366, 149.611 93.406, 150.237 95.798 C 150.684 97.508, 150.269 97.800, 147.394 97.800 C 144.162 97.800, 144.086 97.715, 145.513 95.677 C 147.724 92.522, 147.435 92.226, 142.290 92.369 C 138.346 92.479, 137.398 92.137, 136.455 90.265 C 135.464 88.295, 135.083 89.129, 133.256 97.265 C 131.807 103.721, 131.493 106.876, 132.214 107.750 C 133.768 109.634, 158.343 109.497, 159.921 107.595 C 161.648 105.514, 164.449 88.049, 163.248 86.848 C 162.608 86.208, 162.094 86.531, 161.767 87.782 M 199.516 87.250 C 198.342 90.735, 197.373 106.613, 198.265 107.750 C 199.873 109.801, 226.595 109.497, 227.393 107.418 C 228.426 104.726, 228.085 87, 227 87 C 226.450 87, 225.948 88.463, 225.884 90.250 C 225.820 92.037, 225.574 92.775, 225.338 91.889 C 224.651 89.322, 220.441 88, 212.953 88 C 208.984 88, 206 87.571, 206 87 C 206 85.542, 200.014 85.773, 199.516 87.250 M 232.085 87.398 C 231.331 88.306, 231.026 92.242, 231.213 98.648 L 231.500 108.500 244 109.265 C 262.062 110.370, 261 111.031, 261 98.681 C 261 92.018, 260.578 87.978, 259.800 87.200 C 257.974 85.374, 233.620 85.548, 232.085 87.398 M 264.667 86.667 C 264.300 87.033, 264 91.726, 264 97.095 C 264 110.429, 263.601 110.128, 280.849 109.778 L 294.500 109.500 294.161 99.518 C 293.678 85.303, 294.479 86, 278.631 86 C 271.318 86, 265.033 86.300, 264.667 86.667 M 297.131 87.342 C 295.974 88.736, 297.808 106.262, 299.377 108.801 C 299.898 109.643, 304.413 110, 314.559 110 L 329 110 328.999 107.250 C 328.996 101.980, 326.020 87.630, 324.765 86.833 C 322.489 85.389, 298.384 85.832, 297.131 87.342 M 330.631 87.280 C 328.971 88.495, 328.967 89.048, 330.566 98.030 C 331.494 103.239, 332.758 108.024, 333.376 108.665 C 333.994 109.306, 338.100 109.981, 342.500 110.165 L 350.500 110.500 350.781 98.250 L 351.062 86 341.722 86 C 335.711 86, 331.758 86.456, 330.631 87.280 M 167.507 88.121 C 165.978 92.105, 164.302 106.592, 165.237 107.750 C 165.952 108.637, 170.118 109, 179.587 109 C 191.281 109, 193.042 108.784, 193.838 107.250 C 195.282 104.470, 196.349 87, 195.075 87 C 194.484 87, 194 88.350, 194 90 C 194 93.515, 194.275 93.431, 189.426 91.405 C 186.544 90.200, 184.039 89.977, 179.213 90.494 C 173.449 91.111, 172.584 90.958, 170.436 88.939 C 168.550 87.168, 167.938 86.997, 167.507 88.121 M 83 90 C 83 90.550, 83.648 91, 84.441 91 C 85.234 91, 86.160 90.550, 86.500 90 C 86.840 89.450, 86.191 89, 85.059 89 C 83.927 89, 83 89.450, 83 90 M 178.667 93.667 C 177.516 94.817, 177.938 96, 179.500 96 C 180.325 96, 181 96.498, 181 97.107 C 181 97.716, 180.302 97.946, 179.448 97.618 C 178.558 97.277, 178.157 97.445, 178.507 98.011 C 179.338 99.355, 181.721 99.260, 182.594 97.848 C 182.985 97.215, 182.529 96.129, 181.581 95.435 C 179.958 94.249, 179.963 94.147, 181.678 93.703 C 183.243 93.298, 183.206 93.216, 181.417 93.116 C 180.271 93.052, 179.033 93.300, 178.667 93.667 M 211.015 94.750 C 211.028 96.235, 211.173 96.274, 211.974 95.008 C 212.687 93.881, 213.199 93.799, 214.071 94.671 C 215.524 96.124, 214.271 98.318, 212.399 97.600 C 211.629 97.304, 211 97.532, 211 98.105 C 211 99.710, 214.150 98.718, 215.393 96.722 C 216.250 95.345, 216.161 94.727, 215 93.987 C 212.675 92.505, 210.998 92.826, 211.015 94.750 M 244.667 93.667 C 243.449 94.884, 243.953 97.955, 245.286 97.444 C 245.993 97.172, 246.571 96.062, 246.571 94.975 C 246.571 92.960, 245.861 92.472, 244.667 93.667 M 277 95.059 C 277 95.641, 277.450 95.840, 278 95.500 C 278.550 95.160, 279 94.684, 279 94.441 C 279 94.198, 278.550 94, 278 94 C 277.450 94, 277 94.477, 277 95.059 M 310 97 C 310 98.867, 310.267 99.133, 311.200 98.200 C 312.133 97.267, 312.133 96.733, 311.200 95.800 C 310.267 94.867, 310 95.133, 310 97 M 313.636 95.780 C 313.298 96.326, 313.692 97.329, 314.511 98.009 C 316.137 99.359, 316.476 98.300, 315.110 96.143 C 314.587 95.319, 314.009 95.176, 313.636 95.780 M 347 96.917 C 347 97.971, 346.438 99.060, 345.750 99.338 C 345.003 99.639, 345.205 99.874, 346.250 99.921 C 347.471 99.976, 348 99.244, 348 97.500 C 348 96.125, 347.775 95, 347.500 95 C 347.225 95, 347 95.862, 347 96.917 M 192.252 99.500 C 192.263 101.700, 192.468 102.482, 192.707 101.238 C 192.946 99.994, 192.937 98.194, 192.687 97.238 C 192.437 96.282, 192.241 97.300, 192.252 99.500 M 280.333 97.544 C 280.333 98.345, 280.708 99, 281.167 99 C 281.625 99, 282 98.577, 282 98.059 C 282 97.541, 281.625 96.886, 281.167 96.603 C 280.708 96.320, 280.333 96.743, 280.333 97.544 M 277 98 C 277 98.550, 277.477 99, 278.059 99 C 278.641 99, 278.840 98.550, 278.500 98 C 278.160 97.450, 277.684 97, 277.441 97 C 277.198 97, 277 97.450, 277 98 M 70.111 102.111 C 69.495 103.878, 69.166 105.499, 69.380 105.713 C 69.594 105.927, 70.273 104.656, 70.889 102.889 C 71.505 101.122, 71.834 99.501, 71.620 99.287 C 71.406 99.073, 70.727 100.344, 70.111 102.111 M 80.500 99.833 C 78.613 101.721, 80.587 102.726, 86.500 102.889 C 92.264 103.047, 93 102.854, 93 101.183 C 93 99.543, 92.218 99.300, 87 99.316 C 83.700 99.325, 80.775 99.559, 80.500 99.833 M 94.348 100.246 C 93.251 102.022, 95.483 103, 100.632 103 C 105.255 103, 106.094 102.729, 105.823 101.323 C 105.571 100.015, 104.323 99.629, 100.157 99.568 C 97.219 99.526, 94.605 99.831, 94.348 100.246 M 104.333 105.667 C 104.700 106.033, 105.300 106.033, 105.667 105.667 C 106.033 105.300, 105.733 105, 105 105 C 104.267 105, 103.967 105.300, 104.333 105.667 M 68 108 C 68 108.733, 68.300 109.033, 68.667 108.667 C 69.033 108.300, 69.033 107.700, 68.667 107.333 C 68.300 106.967, 68 107.267, 68 108 M 67.079 110.668 C 67.036 111.311, 66.741 112.661, 66.424 113.668 C 65.877 115.409, 65.906 115.412, 66.995 113.712 C 67.626 112.729, 67.920 111.379, 67.650 110.712 C 67.295 109.837, 67.136 109.825, 67.079 110.668 M 71.659 114.307 C 68.803 120.324, 64.819 134.219, 65.698 135.098 C 67.009 136.409, 137.069 136.331, 138.384 135.016 C 139.435 133.965, 142.819 118.622, 142.939 114.357 C 143.008 111.944, 140.209 110.391, 138.633 111.967 C 137.922 112.678, 138.155 113, 139.379 113 C 140.785 113, 141.045 113.577, 140.617 115.750 C 140.319 117.263, 139.544 121.425, 138.894 125 C 138.245 128.575, 137.273 132.063, 136.734 132.750 C 136.015 133.668, 131.466 133.967, 119.628 133.875 C 100.965 133.731, 65.134 132.443, 72.417 132.179 C 77.121 132.008, 78.236 130.592, 73.715 130.530 C 70.484 130.485, 70.276 127.226, 73.427 126.028 C 74.842 125.490, 76 124.787, 76 124.466 C 76 124.145, 75.550 124.160, 75 124.500 C 73.716 125.293, 73.729 124.375, 75.035 121.934 C 75.605 120.870, 76.955 120, 78.035 120 C 79.116 120, 80 119.550, 80 119 C 80 118.450, 80.675 118, 81.500 118 C 83.563 118, 83.391 115.319, 81.250 114.117 C 79.779 113.291, 79.739 113.057, 81 112.646 C 81.825 112.378, 83.175 111.933, 84 111.658 C 84.825 111.383, 82.739 111.122, 79.364 111.079 C 73.373 111.002, 73.191 111.078, 71.659 114.307 M 174.092 120.176 C 172.477 131.764, 171.882 134.414, 171.141 133.310 C 170.082 131.731, 166.938 130.912, 158.037 129.896 C 153.383 129.365, 149.252 128.408, 148.857 127.769 C 148.462 127.130, 148.291 124.373, 148.477 121.641 C 148.663 118.909, 148.453 115.735, 148.011 114.587 C 147.247 112.607, 147.149 112.645, 146.103 115.315 C 145.496 116.863, 145 119.353, 145 120.847 C 145 122.342, 144.384 125.939, 143.631 128.842 C 141.598 136.680, 142.178 137, 158.449 137 C 168.907 137, 172.015 136.687, 172.969 135.537 C 174.482 133.715, 177.180 113.801, 176.067 112.676 C 175.618 112.223, 174.730 115.598, 174.092 120.176 M 180.060 114.342 C 179.570 115.631, 179.019 121.143, 178.835 126.592 L 178.500 136.500 193.265 136.777 L 208.029 137.054 208.952 134.626 C 209.741 132.552, 210.498 116.484, 209.948 113.500 C 209.505 111.098, 208.225 119.078, 208.103 125 C 207.962 131.858, 206.701 135.787, 205.776 132.250 C 205.269 130.314, 197.242 128, 191.033 128 C 187.322 128, 186 126.252, 186 121.347 C 186 113.595, 182.095 108.990, 180.060 114.342 M 205.333 112.667 C 205.700 113.033, 206.300 113.033, 206.667 112.667 C 207.033 112.300, 206.733 112, 206 112 C 205.267 112, 204.967 112.300, 205.333 112.667 M 214.489 113.019 C 214.142 113.579, 213.599 118.969, 213.281 124.996 C 212.582 138.248, 211.882 137.681, 229.231 137.925 C 245.390 138.153, 245 138.473, 245 125.024 C 245 118.832, 244.568 113.851, 244 113.500 C 243.359 113.104, 242.988 116.581, 242.967 123.191 L 242.933 133.500 240.967 131.139 C 239.492 129.369, 238.992 127.242, 238.967 122.639 C 238.913 112.766, 236.129 110.680, 226.304 113.154 C 222.842 114.025, 221.270 114.025, 219.875 113.154 C 217.591 111.728, 215.321 111.671, 214.489 113.019 M 248.667 112.667 C 247.286 114.048, 247.929 135.696, 249.386 136.906 C 250.326 137.686, 255.397 137.967, 265.136 137.778 L 279.500 137.500 279.230 126.078 C 279.078 119.640, 278.479 114.077, 277.858 113.328 C 276.688 111.919, 250.019 111.314, 248.667 112.667 M 283.153 113.316 C 281.777 114.974, 282.825 134.406, 284.402 136.471 C 285.541 137.962, 314.218 139.115, 315.608 137.725 C 316.635 136.698, 313.853 116.694, 312.344 114.250 C 311.015 112.098, 310.370 112, 297.599 112 C 287.781 112, 283.956 112.348, 283.153 113.316 M 317.923 113.506 C 316.581 114.847, 316.586 116.169, 317.970 125.595 C 319.987 139.338, 319.502 139, 337.191 139 L 351 139 351 134.750 C 351 129.158, 348.270 115.031, 346.863 113.335 C 345.170 111.295, 319.984 111.444, 317.923 113.506 M 90.402 116.392 C 86.640 117.284, 81.601 121.546, 82.531 123.050 C 82.802 123.489, 82.231 124.055, 81.262 124.308 C 79.879 124.669, 79.969 124.793, 81.679 124.884 C 82.877 124.948, 84.645 125.787, 85.607 126.750 C 87.011 128.153, 88.982 128.478, 95.557 128.391 C 104.569 128.270, 110.698 126.110, 112.500 122.419 C 113.067 121.259, 114.175 120.537, 115.008 120.786 C 115.943 121.067, 115.668 120.369, 114.270 118.915 C 112.367 116.935, 110.732 116.516, 103.102 116.048 C 98.185 115.747, 92.471 115.901, 90.402 116.392 M 65 117 C 65 117.733, 65.300 118.033, 65.667 117.667 C 66.033 117.300, 66.033 116.700, 65.667 116.333 C 65.300 115.967, 65 116.267, 65 117 M 64 120 C 64 120.733, 64.300 121.033, 64.667 120.667 C 65.033 120.300, 65.033 119.700, 64.667 119.333 C 64.300 118.967, 64 119.267, 64 120 M 227.011 121.487 C 225.284 123.568, 226.497 126.012, 229.219 125.937 L 231.500 125.873 229.267 124.975 C 227.778 124.376, 227.238 123.545, 227.646 122.481 C 227.983 121.603, 228.875 121.122, 229.629 121.411 C 230.383 121.700, 231 121.501, 231 120.969 C 231 119.481, 228.395 119.820, 227.011 121.487 M 261.030 121.559 C 261.014 122.141, 261.666 123.491, 262.481 124.559 C 263.763 126.239, 264.097 126.298, 264.966 125 C 265.518 124.175, 265.924 122.825, 265.869 122 C 265.797 120.937, 265.635 121.010, 265.311 122.250 C 265.059 123.213, 264.459 124, 263.976 124 C 263.494 124, 262.641 123.213, 262.080 122.250 C 261.519 121.287, 261.047 120.976, 261.030 121.559 M 297 124 C 297 126.303, 297.451 127, 298.941 127 C 301.389 127, 302.057 125.933, 301.335 123.174 C 300.423 119.686, 297 120.338, 297 124 M 63 123 C 63 123.733, 63.300 124.033, 63.667 123.667 C 64.033 123.300, 64.033 122.700, 63.667 122.333 C 63.300 121.967, 63 122.267, 63 123 M 298.333 122.667 C 298.700 123.033, 299.300 123.033, 299.667 122.667 C 300.033 122.300, 299.733 122, 299 122 C 298.267 122, 297.967 122.300, 298.333 122.667 M 331.015 123.250 C 331.024 123.938, 331.467 125.175, 332 126 C 332.812 127.257, 332.972 127.191, 332.985 125.595 C 332.999 123.753, 333.067 123.750, 335 125.500 C 336.957 127.271, 337 127.247, 336.985 124.405 C 336.973 122.194, 336.744 121.857, 336.026 122.992 C 335.275 124.180, 334.830 124.230, 333.842 123.242 C 332.250 121.650, 330.996 121.654, 331.015 123.250 M 298 125 C 298 125.550, 298.450 126, 299 126 C 299.550 126, 300 125.550, 300 125 C 300 124.450, 299.550 124, 299 124 C 298.450 124, 298 124.450, 298 125 M 62 126 C 62 126.733, 62.300 127.033, 62.667 126.667 C 63.033 126.300, 63.033 125.700, 62.667 125.333 C 62.300 124.967, 62 125.267, 62 126 M 61 129 C 61 129.733, 61.300 130.033, 61.667 129.667 C 62.033 129.300, 62.033 128.700, 61.667 128.333 C 61.300 127.967, 61 128.267, 61 129 M 60 132 C 60 132.733, 60.300 133.033, 60.667 132.667 C 61.033 132.300, 61.033 131.700, 60.667 131.333 C 60.300 130.967, 60 131.267, 60 132 M 58 138 C 58 138.733, 58.300 139.033, 58.667 138.667 C 59.033 138.300, 59.033 137.700, 58.667 137.333 C 58.300 136.967, 58 137.267, 58 138 M 63.232 140.664 C 62.720 141.674, 60.577 147.598, 58.469 153.829 C 55.257 163.321, 54.868 165.304, 56.068 166.063 C 56.856 166.562, 63.655 166.976, 71.179 166.985 C 86.619 167.002, 87.191 166.769, 89.059 159.705 C 89.671 157.392, 91.033 152.359, 92.086 148.520 C 94.491 139.749, 94.523 140.063, 91.250 140.173 C 89.737 140.224, 83.024 139.942, 76.331 139.547 C 65.118 138.884, 64.089 138.972, 63.232 140.664 M 57 141 C 57 141.733, 57.300 142.033, 57.667 141.667 C 58.033 141.300, 58.033 140.700, 57.667 140.333 C 57.300 139.967, 57 140.267, 57 141 M 127 140.800 C 127 141.460, 126.325 142, 125.500 142 C 124.675 142, 124 142.477, 124 143.059 C 124 143.641, 124.499 143.810, 125.109 143.432 C 126.386 142.644, 125.737 147.743, 123.287 157.750 L 121.757 164 107.378 164 C 96.551 164, 92.996 163.691, 92.985 162.750 C 92.974 161.901, 92.672 161.970, 92.042 162.966 C 89.933 166.301, 92.724 167, 108.144 167 C 125.576 167, 123.745 168.453, 126.968 152.060 C 128.350 145.030, 128.691 141.291, 128.010 140.610 C 127.330 139.930, 127 139.992, 127 140.800 M 213.729 141.414 C 211.507 143.636, 210.445 166.121, 212.492 167.618 C 213.546 168.389, 230.686 168.936, 267.760 169.383 C 297.317 169.738, 328.137 170.306, 336.250 170.643 L 351 171.256 351 156.291 L 351 141.325 309.750 140.664 C 241.214 139.565, 215.376 139.767, 213.729 141.414 M 81.015 142.973 C 79.573 145.667, 80.193 146.513, 83.814 146.789 C 85.813 146.941, 86.990 146.469, 87.423 145.340 C 88.719 141.963, 82.738 139.753, 81.015 142.973 M 162.703 143 C 162.363 144.375, 161.587 149.527, 160.979 154.448 C 160.371 159.370, 159.650 163.758, 159.377 164.198 C 158.522 165.583, 130.575 165.169, 129.103 163.750 C 128.054 162.739, 127.874 162.882, 128.163 164.500 C 128.584 166.852, 133.918 167.741, 148.559 167.901 C 160.527 168.032, 160.598 167.965, 162.549 154.724 C 164.054 144.506, 164.151 137.135, 162.703 143 M 206.477 152.532 C 205.629 166.100, 205.716 166, 194.721 166 C 178.240 166, 166.113 164.790, 165.661 163.101 C 165.425 162.220, 165.180 162.689, 165.116 164.143 C 164.953 167.853, 165.791 168, 187.047 168 C 204.021 168, 206.021 167.823, 206.830 166.250 C 208.032 163.913, 209.086 142.171, 208.028 141.517 C 207.571 141.235, 206.873 146.191, 206.477 152.532 M 132.158 144 C 132.158 145.375, 132.385 145.938, 132.662 145.250 C 132.940 144.563, 132.940 143.438, 132.662 142.750 C 132.385 142.063, 132.158 142.625, 132.158 144 M 167.624 143.539 C 167.281 144.432, 167.045 146.364, 167.100 147.832 C 167.181 149.978, 167.380 149.737, 168.116 146.599 C 169.055 142.598, 168.739 140.633, 167.624 143.539 M 56 144 C 56 144.733, 56.300 145.033, 56.667 144.667 C 57.033 144.300, 57.033 143.700, 56.667 143.333 C 56.300 142.967, 56 143.267, 56 144 M 55 147 C 55 147.733, 55.300 148.033, 55.667 147.667 C 56.033 147.300, 56.033 146.700, 55.667 146.333 C 55.300 145.967, 55 146.267, 55 147 M 89 146.773 C 89 147.381, 87.313 148.019, 85.250 148.190 C 81.083 148.534, 79.570 151.712, 82.281 154.423 C 85.443 157.586, 87.262 156.757, 88.615 151.535 C 89.323 148.804, 89.700 146.366, 89.451 146.118 C 89.203 145.870, 89 146.165, 89 146.773 M 51.378 157.433 L 48.580 166.024 50.613 168.058 C 52.607 170.052, 54.223 170.111, 133.573 171.101 C 178.083 171.656, 245.100 172.675, 282.500 173.365 C 319.900 174.055, 350.688 174.480, 350.917 174.309 C 352.871 172.858, 342.351 172.423, 291.670 171.858 C 102.546 169.750, 53.695 168.913, 52.250 167.756 C 50.452 166.316, 50.707 162.165, 53.003 155.492 C 54.104 152.291, 54.818 149.485, 54.590 149.257 C 54.362 149.029, 52.916 152.708, 51.378 157.433 M 64.166 153.597 C 59.383 156.947, 63.392 161.734, 68.631 158.930 C 71.496 157.396, 71.713 154.452, 69.066 153.035 C 66.631 151.732, 66.866 151.705, 64.166 153.597 M 198.750 178.500 C 195.025 180.618, 195.242 181.443, 199.012 179.494 C 201.705 178.101, 208.445 178.043, 262.762 178.943 C 296.168 179.497, 329.688 180.178, 337.250 180.456 C 344.813 180.735, 351 180.584, 351 180.121 C 351 179.658, 329.738 178.989, 303.750 178.635 C 277.762 178.281, 244.125 177.754, 229 177.464 C 205.239 177.009, 201.126 177.149, 198.750 178.500 " stroke="none" fill="#000000" fill-rule="evenodd"/>
</svg>