<svg xmlns="http://www.w3.org/2000/svg" width="675" height="156" viewBox="0 0 675 156" version="1.1">
	<path d="M 549 25.335 C 549 39.270, 549.299 74.370, 549.664 103.335 L 550.327 156 612.664 156 L 675 156 675 78 L 675 0 612 0 L 549 0 549 25.335 M 287.542 67.729 C 280.518 69.513, 269.601 81.342, 260.988 96.500 C 259.112 99.800, 255.875 104.750, 253.793 107.500 C 251.712 110.250, 250.007 113.232, 250.004 114.128 C 250.002 115.023, 249.325 116.315, 248.500 117 C 247.675 117.685, 247 118.796, 247 119.469 C 247 124.323, 240.475 131, 235.731 131 C 234.082 131, 230.989 131.522, 228.860 132.160 C 226.730 132.798, 224.754 133.088, 224.470 132.803 C 223.446 131.780, 225.252 129, 226.940 129 C 229.513 129, 229.894 128.178, 228.739 125.120 C 227.668 122.282, 227.634 122.413, 233.784 105.314 C 234.810 102.461, 236.195 99.469, 236.862 98.666 C 237.850 97.475, 237.580 96.815, 235.403 95.102 C 231.662 92.160, 229.175 92.391, 228.420 95.750 C 228.080 97.263, 226.972 100.813, 225.957 103.639 C 224.942 106.465, 224.321 108.987, 224.577 109.244 C 224.833 109.500, 223.929 112.114, 222.567 115.052 L 220.092 120.395 210.223 120.679 C 204.703 120.839, 198.458 121.633, 196.051 122.482 C 188.431 125.170, 187.066 124.587, 189.010 119.473 C 192.541 110.187, 194.614 84.747, 192.200 80.328 C 189.929 76.171, 187.971 75, 183.295 75 C 177.164 75, 171.339 76.858, 168.683 79.661 C 167.483 80.928, 166.093 81.973, 165.597 81.983 C 165.100 81.992, 162.326 84.138, 159.432 86.750 C 156.539 89.362, 152.803 92.530, 151.132 93.788 C 147.890 96.228, 147.852 97.802, 150.986 99.759 C 154.033 101.662, 156.675 100.286, 165.500 92.197 C 171.307 86.874, 177.837 82.012, 180.583 80.968 C 182.902 80.087, 183.687 80.242, 185.362 81.917 C 187.804 84.359, 187.995 86.175, 186.934 96.840 C 185.261 113.659, 178.382 128.699, 169.746 134.418 C 154.957 144.210, 143.893 152.457, 142.700 154.578 C 142.051 155.732, 142.941 156, 147.421 156 C 152.583 156, 153.251 155.709, 157.721 151.517 C 164.712 144.959, 167.647 145.664, 162.337 152.625 L 159.674 156.116 164.944 155.808 C 170.202 155.501, 170.222 155.487, 173.261 150 C 174.936 146.975, 176.688 144.350, 177.153 144.167 C 177.619 143.983, 178 143.415, 178 142.903 C 178 140.452, 182.957 134.877, 186.878 132.918 C 193.805 129.459, 213.284 125.127, 216.451 126.343 C 220.427 127.869, 214.448 138.945, 204.651 148.201 L 196.500 155.902 205.006 155.951 C 213.406 155.999, 213.527 155.965, 214.768 153.162 C 217.436 147.134, 231.993 137, 237.983 137 C 238.385 137, 238.962 140.616, 239.265 145.037 C 240.028 156.164, 239.793 156, 254.979 156 L 267.712 156 272.258 152.529 C 275.993 149.678, 277.006 149.302, 277.937 150.424 C 278.560 151.175, 279.001 152.174, 278.917 152.645 C 278.470 155.135, 279.279 156, 282.059 156 C 283.741 156, 284.905 155.655, 284.645 155.234 C 283.981 154.161, 286.459 145.011, 288.919 139.449 L 290.980 134.792 288.740 131.951 C 285.941 128.401, 284.575 128.317, 282.297 131.552 C 276.874 139.252, 264.382 149.048, 256.752 151.582 C 252.134 153.116, 251.477 153.121, 248.370 151.640 C 245.470 150.256, 245 149.533, 245 146.450 C 245 142.089, 246.520 139, 248.667 139 C 249.545 139, 251.704 138.110, 253.464 137.022 C 256.653 135.051, 256.678 135.051, 260.559 137.030 C 265.911 139.759, 266.970 139.008, 263.001 135.299 L 259.688 132.202 262.844 128.373 C 264.580 126.267, 266 124.244, 266 123.878 C 266 123.511, 267.415 121.701, 269.144 119.856 C 271.995 116.812, 282 102.464, 282 101.419 C 282 101.180, 284.475 95.796, 287.500 89.456 C 291.504 81.063, 293 76.768, 293 73.664 C 293 69.880, 291.607 66.788, 290.050 67.116 C 289.748 67.180, 288.619 67.456, 287.542 67.729 M 282 79.500 C 281.315 80.325, 280.135 81, 279.378 81 C 278.620 81, 278 81.678, 278 82.507 C 278 83.336, 275.598 87.499, 272.661 91.757 C 269.725 96.016, 265.788 101.750, 263.911 104.500 C 262.035 107.250, 260.244 109.725, 259.930 110 C 259.031 110.789, 251 127.043, 251 128.073 C 251 131.246, 260.148 122.951, 264.632 115.713 C 266.067 113.396, 268.200 110.600, 269.371 109.500 C 270.542 108.400, 273.028 104.575, 274.896 101 C 276.764 97.425, 279.190 93.503, 280.288 92.284 C 282.449 89.886, 286.146 80.045, 285.363 78.778 C 284.623 77.580, 283.370 77.849, 282 79.500 M 348 107.378 C 348 109.705, 350.859 111.530, 351.577 109.661 C 351.907 108.800, 351.886 107.624, 351.530 107.048 C 350.587 105.523, 348 105.764, 348 107.378 M 327.792 109.828 C 319.044 112.861, 316.661 114.542, 319.008 116.026 C 321.409 117.544, 326.139 117.151, 332.535 114.904 C 339.157 112.577, 340.318 111.463, 338.895 108.804 C 337.679 106.533, 337.163 106.580, 327.792 109.828 M 307.659 141.494 C 306.097 142.309, 303.172 144.251, 301.159 145.810 C 299.147 147.369, 295.137 150.150, 292.250 151.991 C 289.363 153.831, 287 155.486, 287 155.668 C 287 155.851, 290.040 156, 293.757 156 C 300.352 156, 300.632 155.893, 305.507 151.516 C 308.253 149.049, 311.014 147.024, 311.642 147.016 C 312.270 147.007, 315.036 149.025, 317.789 151.500 L 322.794 156 339.647 155.842 L 356.500 155.683 344.500 154.970 C 337.900 154.577, 331.600 153.888, 330.500 153.437 C 327.062 152.029, 320.634 147.012, 317.683 143.432 C 314.578 139.664, 312.090 139.183, 307.659 141.494 " stroke="none" fill="#000000" fill-rule="evenodd"/>
</svg>