<svg xmlns="http://www.w3.org/2000/svg" width="351" height="181" viewBox="0 0 351 181" version="1.1">
	<path d="M 137 22.774 C 123.129 34.433, 82.933 74.316, 66.192 93.032 C 55.732 104.725, 53.505 106.719, 49.802 107.707 C 47.446 108.336, 45.364 108.697, 45.176 108.510 C 44.742 108.075, 53.390 95.189, 72.318 68.066 C 88.433 44.973, 90.507 41.233, 91.545 33.389 C 92.168 28.675, 91.991 28.021, 89.259 24.964 C 81.506 16.287, 57.482 22.108, 36.414 37.768 C 17.809 51.598, -0.108 77.950, 0.071 91.222 L 0.142 96.500 1.875 90.450 C 4.176 82.417, 12.857 66.239, 19.680 57.271 C 33.848 38.647, 59.757 23, 76.425 23 C 85.530 23, 88 25.128, 88 32.971 C 88 40.403, 85.839 44.567, 71.377 65 C 65.344 73.525, 55.761 87.328, 50.081 95.672 C 42.278 107.138, 39.113 111.002, 37.128 111.490 C 35.682 111.845, 30.342 113.905, 25.259 116.068 C 12.934 121.312, 9.086 121.321, 3.882 116.118 L 0 112.235 0 115.036 C 0 117.161, 0.849 118.361, 3.515 120.009 C 9.038 123.423, 14.237 122.963, 25.929 118.030 C 31.512 115.674, 36.342 114.008, 36.662 114.328 C 36.981 114.648, 34.793 118.643, 31.798 123.205 C 21.771 138.482, 5 167.975, 5 170.333 C 5 172.404, 7.819 170.426, 9.793 166.969 C 13.444 160.576, 45.336 119.453, 54.979 108.703 C 55.711 107.887, 78.009 102.749, 85.875 101.584 C 90.078 100.962, 90.223 101.026, 89.578 103.218 C 83.697 123.203, 83.012 129.553, 86.750 129.421 C 89.539 129.322, 89.578 128.956, 86.071 135.791 C 82.522 142.708, 78 153.848, 78 155.672 C 78 158.009, 80.006 157.094, 81.118 154.250 C 85.765 142.367, 86.414 141.554, 92.788 139.645 C 106.529 135.529, 122 123.409, 122 116.761 C 122 112.730, 120.227 111.600, 114.250 111.820 C 112.463 111.885, 111 111.745, 111 111.507 C 111 111.269, 113.715 109.231, 117.034 106.977 C 120.352 104.724, 124.642 101.497, 126.567 99.807 C 130.912 95.992, 131.486 96.507, 130.098 102.980 C 127.935 113.063, 129.253 113.452, 137.781 105.250 C 141.069 102.088, 145.465 98.260, 147.549 96.743 L 151.339 93.987 153.297 96.088 C 155.265 98.201, 159.035 98.375, 163.250 96.545 C 164.723 95.906, 165 96.326, 165 99.193 C 165 105.572, 167.920 106.450, 174.889 102.166 C 177.425 100.607, 181.432 99.023, 183.794 98.647 L 188.088 97.962 185.795 101.063 C 182.205 105.918, 184.712 107.143, 197.791 106.923 C 203.452 106.827, 208.326 106.993, 208.624 107.290 C 208.921 107.588, 208.851 110.345, 208.467 113.416 L 207.770 119 170.135 119.189 L 132.500 119.377 164 120.054 C 181.325 120.427, 198.313 120.792, 201.750 120.866 L 208 121 208 132 C 208 146.476, 209.677 146.772, 212.713 132.834 C 213.929 127.246, 215.307 122.293, 215.773 121.827 C 216.240 121.360, 232.119 121.347, 251.061 121.798 C 270.002 122.248, 285.845 122.447, 286.266 122.239 C 289.447 120.673, 283.117 120, 265.191 119.996 C 253.811 119.994, 238.130 119.701, 230.343 119.345 L 216.187 118.697 217.459 114.599 C 219.425 108.262, 221.154 105.081, 222.902 104.586 C 223.781 104.337, 229.450 103.149, 235.500 101.945 L 246.500 99.757 258.662 105.878 C 265.811 109.477, 272.114 112, 273.952 112 C 277.927 112, 283.966 108.929, 289.085 104.305 L 293.079 100.696 310.789 102.306 C 329.277 103.986, 348.246 103.272, 350.491 100.812 C 351.212 100.022, 350.942 99.904, 349.546 100.400 C 345.066 101.991, 330.814 102.219, 313.965 100.970 C 295.406 99.594, 293.998 99.122, 297.909 95.583 C 300.375 93.351, 302.391 88.460, 301.645 86.518 C 300.628 83.867, 293.569 84.775, 273.614 90.123 C 263.102 92.941, 252.866 95.682, 250.869 96.215 C 247.580 97.092, 246.522 96.789, 239.619 93.001 C 235.429 90.701, 232 88.471, 232 88.045 C 232 86.912, 239.206 76.481, 242.767 72.459 C 244.606 70.382, 246.763 68.998, 248.165 68.994 C 255.134 68.978, 263.679 63.934, 262.398 60.594 C 260.833 56.516, 254.107 58.416, 246.355 65.126 L 241.534 69.298 221.517 68.532 C 210.508 68.111, 198.941 67.482, 195.814 67.133 L 190.127 66.500 195.061 59 C 197.775 54.875, 199.996 51.163, 199.998 50.750 C 200.005 48.472, 196.662 50.871, 189.900 57.994 L 182.300 66 176.150 66 C 168.479 66, 168.005 67.793, 175.568 68.200 L 181.137 68.500 177.206 74 C 175.044 77.025, 171.811 82.105, 170.021 85.288 C 164.708 94.737, 156.831 99.160, 155.409 93.494 C 154.902 91.473, 155.770 89.779, 159.890 84.748 C 165.014 78.491, 166.105 76, 163.723 76 C 161.350 76, 158.045 79.067, 155.320 83.796 C 151.529 90.377, 148.169 94.721, 146.321 95.430 C 144.912 95.971, 144.902 95.798, 146.231 93.767 C 155.639 79.390, 159.107 70, 155.009 70 C 154.429 70, 151.991 71.810, 149.591 74.023 C 144.904 78.343, 141.613 85.596, 140.431 94.207 C 139.963 97.620, 138.836 99.958, 136.333 102.707 L 132.879 106.500 133.493 101.110 C 133.830 98.145, 134.363 94.433, 134.678 92.860 C 135.120 90.652, 134.880 90, 133.625 90 C 132.731 90, 132 90.380, 132 90.844 C 132 93.072, 114.091 108, 111.418 108 C 111.038 108, 112.712 105.863, 115.139 103.250 C 128.769 88.576, 149.674 55.895, 151.601 46.250 C 152.173 43.385, 151.994 43, 150.088 43 C 144.375 43, 124.184 70.012, 102.997 106 C 96.133 117.660, 89.761 126, 87.718 126 C 86.066 126, 92.356 102.031, 94.338 100.770 C 96.607 99.326, 100.259 99.882, 99.610 101.573 C 99.182 102.688, 99.515 103.049, 100.754 102.812 C 101.714 102.629, 102.644 101.472, 102.820 100.240 C 103.106 98.235, 102.713 98, 99.070 98 C 96.831 98, 95 97.829, 95 97.621 C 95 96.596, 100.878 84.500, 105.263 76.500 C 115.267 58.251, 137.786 27.117, 147.893 17.563 C 149.602 15.948, 151 14.260, 151 13.813 C 151 11.689, 147.595 13.868, 137 22.774 M 117 43.421 C 107.375 52.446, 94.550 65.128, 88.500 71.603 C 73.438 87.724, 58.838 104.172, 59.236 104.570 C 59.417 104.751, 64.951 103.838, 71.533 102.541 C 78.115 101.245, 85.170 99.900, 87.212 99.554 C 90.820 98.941, 91.092 98.581, 96.904 86.712 C 105.607 68.938, 119.856 46.948, 133.491 30.250 C 139.015 23.485, 133.929 27.547, 117 43.421 M 144.866 49.768 C 136.295 58.896, 127.985 70.549, 113.176 94.206 C 102.229 111.694, 101.298 113.830, 106.939 108.500 C 113.235 102.552, 124.758 87.940, 132.963 75.500 C 139.895 64.991, 149.544 47.210, 148.747 46.414 C 148.540 46.207, 146.793 47.716, 144.866 49.768 M 254.500 60.959 C 253.400 61.417, 251.150 63.246, 249.500 65.024 L 246.500 68.255 250.500 67.554 C 255.674 66.646, 259 64.464, 259 61.977 C 259 59.881, 257.762 59.601, 254.500 60.959 M 188.405 63.155 C 187.962 63.870, 188.130 64.038, 188.845 63.595 C 189.480 63.203, 190 62.684, 190 62.441 C 190 61.607, 189.117 62.002, 188.405 63.155 M 183 70 C 182.411 71.100, 182.155 72, 182.430 72 C 182.705 72, 183.411 71.100, 184 70 C 184.589 68.900, 184.845 68, 184.570 68 C 184.295 68, 183.589 68.900, 183 70 M 180.500 78.130 C 176.100 83.640, 171.663 89.188, 170.640 90.460 C 169.617 91.731, 168.546 94.848, 168.260 97.386 C 167.803 101.441, 167.971 102, 169.647 102 C 173.298 102, 175.991 99.206, 175.364 96.069 C 174.852 93.508, 175.257 92.934, 179.215 90.614 C 184.571 87.475, 189.872 85.539, 190.739 86.405 C 191.089 86.755, 189.406 89.048, 187 91.500 C 184.594 93.952, 182.858 96.191, 183.142 96.476 C 184.119 97.453, 193.502 94.069, 198.359 90.988 C 206.812 85.626, 205.640 88.332, 196.642 94.954 C 187.664 101.560, 186.449 103.351, 190.250 104.370 C 193.206 105.162, 203.862 105.144, 206.860 104.341 C 209.081 103.746, 209.193 103.351, 208.763 97.605 C 208.512 94.247, 208.746 90.518, 209.283 89.318 C 211.127 85.196, 217.939 84.104, 227 86.478 C 229.067 87.020, 229.812 86.604, 231.300 84.078 C 232.290 82.397, 234.652 78.988, 236.550 76.503 C 241.209 70.399, 241.024 69.927, 234.250 70.611 C 231.088 70.930, 219.705 70.473, 208.955 69.595 C 198.206 68.718, 189.206 68.025, 188.955 68.056 C 188.705 68.086, 184.900 72.620, 180.500 78.130 M 151.263 75.254 C 148.715 78.009, 145.366 84.465, 144.392 88.500 C 143.161 93.602, 146.294 89.927, 150.462 81.380 C 154.393 73.316, 154.614 71.632, 151.263 75.254 M 212.925 87.590 C 211.752 89.004, 211.347 102.680, 212.445 103.779 C 212.638 103.971, 214.405 103.827, 216.371 103.458 C 219.476 102.876, 220.411 101.957, 223.473 96.481 C 225.413 93.013, 227 89.960, 227 89.696 C 227 88.837, 219.020 86, 216.602 86 C 215.306 86, 213.651 86.716, 212.925 87.590 M 285.500 89.002 C 257.636 96.096, 250.008 98.397, 251.083 99.382 C 251.874 100.106, 269.507 108.872, 272.301 109.929 C 275.539 111.155, 281.416 108.728, 286.323 104.140 L 289.146 101.500 280.323 100.939 L 271.500 100.378 281.054 100.189 C 290.433 100.003, 290.664 99.941, 293.684 96.750 C 302.560 87.372, 300.302 85.234, 285.500 89.002 M 180.306 92.415 C 178.763 93.743, 177.852 95.183, 178.282 95.614 C 178.712 96.045, 180.504 94.958, 182.263 93.199 C 185.986 89.476, 184.440 88.857, 180.306 92.415 M 226.297 96.520 C 223.175 101.862, 223.150 102, 225.297 101.985 C 227.435 101.971, 239.013 99.502, 241.959 98.432 C 243.277 97.953, 232.223 90.966, 230.233 91.020 C 229.830 91.031, 228.059 93.506, 226.297 96.520 M 214.750 105.794 C 212.521 106.069, 211.998 106.641, 211.989 108.816 C 211.983 110.292, 211.699 113.188, 211.358 115.250 C 210.379 121.172, 212.395 119.678, 215.315 112.317 C 216.774 108.641, 217.862 105.594, 217.733 105.545 C 217.605 105.496, 216.262 105.608, 214.750 105.794 M 44.820 111.139 C 42.404 112.023, 38.429 117.617, 27.301 135.794 C 17.893 151.160, 18.845 150.432, 35.500 129.523 C 41.550 121.927, 47.545 114.428, 48.822 112.856 C 51.424 109.657, 50.248 109.152, 44.820 111.139 M 105 115.658 C 102.525 117.109, 99.712 118.975, 98.749 119.804 C 96.552 121.696, 87.761 138.095, 88.532 138.865 C 89.540 139.874, 99.229 135.886, 105.702 131.798 C 112.188 127.702, 118.413 121.354, 119.311 117.919 C 120.677 112.697, 112.305 111.374, 105 115.658 M 211.079 122.583 C 211.127 123.748, 211.364 123.985, 211.683 123.188 C 211.972 122.466, 211.936 121.603, 211.604 121.271 C 211.272 120.939, 211.036 121.529, 211.079 122.583 M 36.250 180.747 C 42.712 180.921, 53.287 180.921, 59.750 180.747 C 66.213 180.573, 60.925 180.430, 48 180.430 C 35.075 180.430, 29.787 180.573, 36.250 180.747 " stroke="none" fill="#000000" fill-rule="evenodd"/>
</svg>