<svg xmlns="http://www.w3.org/2000/svg" width="351" height="181" viewBox="0 0 351 181" version="1.1">
	<path d="M 57.332 38.250 C 55.379 40.429, 44.383 57.712, 36.494 71 C 34.313 74.675, 27.565 82.716, 20.968 89.500 C 7.826 103.016, 4.222 108.104, 3.366 114.345 C 2.767 118.720, 4.915 125, 7.010 125 C 9.390 125, 20.535 107.322, 30.258 88.125 C 33.809 81.116, 36.111 78.217, 44.383 70.342 C 49.819 65.167, 54.495 61.162, 54.774 61.441 C 55.053 61.720, 51.652 67.698, 47.215 74.724 C 39.258 87.324, 33.002 99.248, 33.001 101.816 C 32.999 105.065, 35.017 107.061, 37.149 105.920 C 38.643 105.121, 39.517 105.117, 40.307 105.907 C 42.074 107.674, 42.823 107.233, 45.673 102.750 C 49.102 97.354, 57.024 89, 58.712 89 C 60.598 89, 60.285 92.521, 58 97 C 55.819 101.275, 55.275 107.408, 57.132 106.789 C 57.755 106.582, 59.377 103.282, 60.736 99.456 C 63.712 91.081, 64.386 90.243, 66.470 92.327 C 67.708 93.565, 68.653 93.702, 70.673 92.934 C 74.247 91.575, 74.482 92.171, 72.459 97.469 C 70.588 102.367, 71.477 107, 74.288 107 C 75.861 107, 84.928 99.427, 88.645 95.010 C 91.873 91.173, 92.483 91.599, 90.513 96.314 C 88.627 100.829, 88.571 104.621, 90.381 105.316 C 92.291 106.049, 97.847 102.061, 101.797 97.123 C 105.903 91.989, 107 91.940, 107 96.893 C 107 100.705, 108.889 102.805, 111.092 101.443 C 111.594 101.133, 112.442 102.032, 112.977 103.440 C 114.516 107.486, 117.684 106.477, 124.729 99.696 C 129.269 95.325, 130.784 95.184, 128.906 99.307 C 127.573 102.232, 128.270 105, 130.339 105 C 131.110 105, 134.825 102.752, 138.594 100.003 L 145.448 95.007 146.782 97.553 C 148.312 100.473, 149.890 100.289, 156.678 96.396 C 161.931 93.384, 161.824 93.365, 161.647 97.250 C 161.473 101.105, 164.490 102.171, 168.207 99.568 C 171.203 97.469, 172.660 97.593, 173.290 100 C 174.060 102.947, 177.412 102.507, 184.701 98.500 C 192.478 94.225, 192.522 94.224, 192.510 98.250 C 192.487 105.891, 198.971 102.146, 233.977 74.294 C 244.886 65.615, 249.873 63.115, 244.825 68.855 C 243.546 70.310, 247 66.962, 252.500 61.416 C 258 55.870, 264.480 49.773, 266.901 47.868 C 269.581 45.759, 271.107 43.837, 270.803 42.952 C 270.458 41.946, 267.574 44.128, 261.403 50.066 C 243.765 67.036, 198.206 99.873, 195.732 97.399 C 195.423 97.090, 195.817 95.288, 196.608 93.396 C 198.658 88.489, 196.629 88.090, 189.887 92.073 C 183.793 95.673, 177.471 98.138, 176.590 97.257 C 176.266 96.932, 176 95.392, 176 93.833 C 176 90.247, 174.983 90.275, 169.832 94.007 C 164.927 97.560, 164.400 97.348, 166.008 92.475 C 167.671 87.436, 166.205 86.389, 161.948 89.575 C 158.522 92.138, 151.629 96, 150.479 96 C 150.148 96, 150.181 93.975, 150.552 91.500 C 151.389 85.923, 150.883 85.908, 145.593 91.351 C 141.419 95.645, 132.351 101.684, 131.442 100.775 C 130.712 100.046, 133.589 93.865, 136.431 90.056 C 139.550 85.874, 139.704 83.417, 136.893 82.682 C 133.778 81.868, 131.165 83.180, 123.669 89.325 C 117.518 94.367, 111.747 97.080, 110.284 95.617 C 109.969 95.302, 110.503 92.971, 111.471 90.437 C 114.567 82.331, 112.165 82.729, 102.307 91.958 C 92.771 100.886, 90.977 100.926, 95.442 92.114 C 97.861 87.340, 98.773 83, 97.356 83 C 97.002 83, 92.953 86.609, 88.359 91.020 C 80.453 98.610, 75.652 101.985, 74.459 100.792 C 73.724 100.058, 77.673 90.268, 80.052 86.927 C 83.827 81.626, 82.384 80.214, 77.750 84.675 C 69.432 92.682, 65.307 92.721, 68.346 84.763 C 71.510 76.480, 69.895 75.500, 65.679 83.143 C 63.583 86.941, 62.567 87.967, 61.729 87.129 C 59.552 84.952, 56.526 86.042, 51.667 90.750 L 46.764 95.500 49.375 91.500 C 52.771 86.298, 59 74.341, 59 73.025 C 59 72.461, 58.385 72, 57.633 72 C 55.976 72, 52.407 77.256, 47.650 86.701 C 44.408 93.139, 38.374 100.707, 37.321 99.655 C 36.194 98.527, 44.892 83.094, 59.139 60.942 C 67.235 48.355, 66.165 48.096, 53.319 59.534 C 48.047 64.227, 43.520 67.854, 43.259 67.593 C 42.578 66.912, 51.645 52.462, 56.709 46.158 C 62.212 39.308, 62.773 32.179, 57.332 38.250 M 268.513 55.980 C 265.040 61.481, 265.168 63.342, 268.963 62.508 C 271.555 61.939, 272.007 62.179, 272.571 64.429 C 273.612 68.575, 274.780 67.398, 275.156 61.824 C 275.375 58.579, 275.038 56.181, 274.253 55.395 C 273.564 54.707, 273 53.661, 273 53.071 C 273 50.815, 270.924 52.161, 268.513 55.980 M 291.667 67.667 C 291.300 68.033, 291 69.085, 291 70.003 C 291 72.010, 284.015 82.754, 282.262 83.442 C 281.581 83.709, 278.805 84.222, 276.091 84.582 L 271.159 85.237 271.711 81.118 C 272.373 76.179, 271.518 75.955, 268.016 80.150 C 265.408 83.274, 265.365 83.285, 262.699 81.539 C 260.313 79.975, 260.082 79.342, 260.634 75.889 C 261.430 70.910, 259.637 70.715, 255.196 75.298 C 252.867 77.701, 251.996 79.531, 251.985 82.048 C 251.974 84.578, 251.018 86.568, 248.405 89.500 C 246.388 91.763, 245.158 92.631, 245.573 91.500 C 248.913 82.396, 250.022 78.689, 249.547 78.214 C 248.607 77.274, 244.060 82.180, 244.287 83.890 C 244.404 84.775, 242.929 88.519, 241.010 92.210 C 238.264 97.490, 237.780 99.180, 238.740 100.140 C 240.693 102.093, 244.626 99.350, 250.770 91.750 C 255.227 86.235, 256.754 85, 259.113 85 C 262.106 85, 263.311 88.072, 260.902 89.560 C 259.321 90.538, 254 99.146, 254 100.727 C 254 101.462, 254.683 102.325, 255.517 102.645 C 257.379 103.359, 260.575 99.572, 264 92.594 C 265.936 88.649, 266.951 87.577, 268.500 87.840 C 269.600 88.027, 272.413 88.121, 274.750 88.050 C 277.087 87.978, 278.994 88.050, 278.987 88.210 C 278.980 88.369, 277.630 91.151, 275.987 94.391 C 272.627 101.017, 272.324 103.194, 274.508 105.007 C 275.768 106.052, 276.807 105.519, 280.820 101.765 C 283.462 99.294, 286.721 96.687, 288.062 95.974 C 289.403 95.260, 292.187 93.323, 294.250 91.671 C 299.110 87.776, 299.782 88.681, 297.146 95.569 C 293.061 106.245, 294.343 106.482, 304.625 96.948 C 308.808 93.070, 312.422 90.089, 312.657 90.324 C 312.892 90.558, 312.354 92.573, 311.463 94.802 C 308.109 103.182, 311.066 105.834, 319.569 102.073 C 325.337 99.521, 326.030 99.922, 324.859 105.133 C 323.373 111.748, 314.729 123.304, 307.305 128.602 C 301.266 132.912, 299.264 135.535, 303.914 133.046 C 305.340 132.283, 306 132.264, 306 132.985 C 306 134.607, 283.244 164.617, 279.847 167.476 C 275.834 170.852, 272.444 170.769, 270.646 167.250 C 268.904 163.842, 269.782 161.192, 274.601 155.312 C 276.536 152.950, 277.395 151.295, 276.509 151.635 C 273.951 152.617, 268 161.049, 268 163.693 C 268 167.123, 270.627 171.747, 273.004 172.501 C 277.098 173.801, 285.806 166.203, 292.491 155.500 C 301.711 140.739, 313.457 126.659, 320.075 122.437 C 325.882 118.732, 330 114.947, 330 113.313 C 330 111.328, 327.917 111.734, 325.190 114.250 L 322.752 116.500 323.502 114 C 323.915 112.625, 324.871 110.285, 325.627 108.800 C 326.382 107.314, 327 105.402, 327 104.549 C 327 103.696, 329.936 100.221, 333.525 96.827 C 340.990 89.767, 344 85.400, 344 81.632 C 344 76.688, 340.322 78.405, 331.624 87.410 C 323.988 95.314, 320.631 97.781, 315.250 99.441 C 312.183 100.387, 312.266 97.863, 315.500 91.788 C 320.452 82.485, 318.838 81.940, 309.041 89.605 C 305.101 92.688, 301.650 94.983, 301.373 94.706 C 301.095 94.429, 301.381 92.299, 302.007 89.974 C 303.908 82.914, 302.201 83.058, 291.154 90.891 C 281.482 97.749, 278.179 99.386, 279.334 96.750 C 279.635 96.063, 280.934 93.025, 282.220 90 C 285.539 82.192, 289.828 76.170, 292.345 75.783 C 293.688 75.577, 294.340 74.896, 294.076 73.976 C 293.843 73.164, 293.712 71.263, 293.786 69.750 C 293.914 67.103, 293.065 66.268, 291.667 67.667 M 333.616 89.003 C 330.126 92.866, 329.125 95, 330.804 95 C 331.594 95, 336.332 90.187, 338.925 86.750 C 341.697 83.076, 337.276 84.952, 333.616 89.003 M 19.500 94.202 C 16.200 97.979, 12.073 103.416, 10.329 106.284 C 7.153 111.508, 5.113 118.026, 6.671 117.971 C 8.550 117.905, 26.534 89.909, 25.828 88.150 C 25.647 87.702, 22.800 90.425, 19.500 94.202 M 127.500 88.871 C 124.180 90.933, 121.170 94.076, 118.517 98.250 C 116.091 102.069, 118.283 101.781, 122.328 97.750 C 124.122 95.963, 126.939 93.370, 128.589 91.988 C 134.344 87.167, 133.613 85.074, 127.500 88.871 M 212.959 107.076 C 211.943 108.975, 212.025 109.057, 213.924 108.041 C 216.058 106.898, 216.752 105, 215.035 105 C 214.505 105, 213.570 105.934, 212.959 107.076 M 207.872 112.750 C 206.629 114.336, 206.664 114.371, 208.250 113.128 C 209.213 112.373, 210 111.585, 210 111.378 C 210 110.555, 209.179 111.084, 207.872 112.750 M 204.500 118 C 204.160 118.550, 204.359 119, 204.941 119 C 205.523 119, 206 118.550, 206 118 C 206 117.450, 205.802 117, 205.559 117 C 205.316 117, 204.840 117.450, 204.500 118 M 198.153 126.750 C 180.748 151.737, 180.343 152.123, 176.174 147.686 C 172.300 143.561, 173.253 141.200, 182.245 132.658 L 190.500 124.816 183.808 129.445 C 171.477 137.974, 169.337 142.897, 175.104 149.465 C 179.230 154.165, 182.105 154.106, 185.466 149.250 C 187.844 145.814, 196.484 132.116, 201.235 124.250 C 204.431 118.958, 202.476 120.543, 198.153 126.750 " stroke="none" fill="#000000" fill-rule="evenodd"/>
</svg>