<svg xmlns="http://www.w3.org/2000/svg" width="675" height="156" viewBox="0 0 675 156" version="1.1">
	<path d="M 349.500 6.340 C 304.416 22.821, 268.161 42.489, 260.893 54.407 C 256.551 61.529, 261.106 67.548, 273.627 71.231 C 277.718 72.435, 280.938 73.908, 280.783 74.505 C 280.354 76.148, 252 103.420, 252 102.189 C 252 101.600, 252.447 100.841, 252.994 100.504 C 255.657 98.858, 268.163 79.772, 268.684 76.557 C 269.928 68.892, 264.540 72.157, 228.855 100.691 C 219.701 108.011, 212.012 114, 211.769 114 C 211.526 114, 211.366 112.088, 211.414 109.750 C 211.542 103.427, 208.906 103.592, 192.857 110.916 C 185.578 114.237, 179.477 116.810, 179.299 116.632 C 179.121 116.454, 179.905 114.209, 181.040 111.643 C 184.848 103.033, 181.424 102.852, 165.519 110.824 C 154.307 116.443, 152.093 117.047, 154.051 113.952 C 154.556 113.154, 154.976 111.263, 154.985 109.750 C 154.997 107.543, 154.546 107, 152.700 107 C 151.435 107, 149.972 107.424, 149.450 107.943 C 144.030 113.324, 122.458 121.360, 110.500 122.452 C 102.431 123.190, 69.636 128.083, 53.500 130.956 C 47.450 132.034, 34.400 134.070, 24.500 135.481 C -0.835 139.091, 0 138.918, 0 140.545 C -0 142.479, 0.400 142.453, 23.500 139.029 C 42.011 136.284, 55.281 134.110, 85 128.954 C 91.325 127.857, 101.900 126.326, 108.500 125.552 C 122.309 123.934, 133.989 120.260, 144.500 114.229 C 148.350 112.020, 151.677 110.379, 151.894 110.584 C 152.111 110.788, 151.516 112.980, 150.571 115.454 C 149.626 117.928, 149.115 120.377, 149.435 120.895 C 149.755 121.413, 156.538 118.465, 164.509 114.344 C 179.990 106.339, 180.545 106.330, 177.049 114.140 C 173.511 122.042, 175.636 121.852, 195.816 112.463 C 203.005 109.119, 208.503 107.103, 209.022 107.622 C 210.478 109.078, 207.954 116.891, 205.371 118.923 C 202.982 120.802, 202.206 123, 203.931 123 C 204.443 123, 214.123 115.580, 225.441 106.511 C 250.792 86.199, 264.304 76, 265.864 76 C 268.460 76, 260.460 87.697, 242.611 110 C 238.429 115.225, 235.006 119.870, 235.004 120.323 C 234.993 122.720, 239.963 118.445, 261.770 97.304 C 281.414 78.258, 286.081 74.208, 287.848 74.670 C 289.031 74.980, 290 75.530, 290 75.892 C 290 76.254, 286.625 79.903, 282.500 84 C 275.627 90.828, 273.538 94, 275.917 94 C 276.422 94, 281.023 90.141, 286.141 85.423 L 295.447 76.847 304.974 77.543 C 310.213 77.926, 314.675 78.398, 314.890 78.593 C 315.465 79.114, 313.565 81.564, 302.433 94.658 C 279.373 121.781, 274.370 128.072, 266.770 139.500 C 262.381 146.100, 257.859 152.512, 256.721 153.750 C 254.662 155.988, 254.662 156, 256.667 156 C 260.306 156, 290.576 123.280, 311.138 97.120 C 316.594 90.179, 322.057 83.230, 323.279 81.677 L 325.500 78.854 349.500 79.924 C 362.700 80.512, 386.984 80.995, 403.464 80.997 C 429.781 81, 433.250 81.178, 431.964 82.465 C 431 83.429, 425.709 84.460, 416.499 85.480 C 396.019 87.747, 345.115 95.006, 342.365 96.051 C 339.233 97.242, 339.375 98.782, 342.750 100.227 C 347.920 102.441, 384.918 101.537, 406 98.681 C 416.175 97.303, 424.676 96.349, 424.891 96.562 C 425.106 96.774, 422.698 100.380, 419.541 104.575 C 411.623 115.095, 413.668 116.378, 422.248 106.274 C 425.879 101.998, 431.921 95.499, 435.675 91.831 C 442.299 85.357, 442.662 85.155, 448 84.956 C 455.341 84.683, 455.098 84.522, 453.417 88.544 C 450.413 95.733, 453.341 95.712, 462.402 88.480 C 471.980 80.834, 472.111 81.762, 463.343 95.113 C 459.064 101.628, 458.142 104, 459.889 104 C 460.378 104, 465.700 99.078, 471.715 93.063 C 481.621 83.157, 486.873 79.540, 488.701 81.367 C 489.967 82.633, 453.761 127.295, 439.923 141.538 C 436 145.576, 434.967 148, 437.171 148 C 437.815 148, 439.053 147.358, 439.921 146.574 C 440.790 145.790, 449.375 139.808, 459 133.280 C 476.963 121.098, 504.293 101.563, 516.222 92.378 C 522.095 87.856, 523.737 87.108, 529.222 86.453 C 545.359 84.526, 668.936 86.606, 671.227 88.843 C 671.626 89.234, 672.094 103.493, 672.266 120.531 C 672.437 137.568, 672.925 152.069, 673.348 152.754 C 673.772 153.439, 673.979 154.063, 673.809 154.140 C 673.639 154.217, 658.425 154.581, 640 154.949 L 606.500 155.617 640.674 155.809 L 674.848 156 675.174 147.750 C 675.353 143.213, 675.379 108.112, 675.230 69.750 L 674.960 0 670.230 0.168 C 665.976 0.319, 665.871 0.375, 669.187 0.725 L 672.875 1.113 672.385 17.807 C 672.116 26.988, 671.789 45.525, 671.657 59 L 671.418 83.500 655.959 83.418 C 647.456 83.373, 617.775 83.166, 590 82.958 C 562.225 82.750, 537.138 82.942, 534.250 83.384 C 529.776 84.069, 529 83.952, 529 82.594 C 529 79.726, 520.959 82.059, 519.720 85.286 C 518.538 88.368, 450.737 137.070, 449.438 135.771 C 449.224 135.557, 455.261 128.150, 462.855 119.311 C 470.448 110.472, 480.520 98.102, 485.238 91.821 L 493.815 80.401 515.157 78.622 C 551.964 75.554, 562.235 73.902, 559.777 71.444 C 559.453 71.120, 544.909 71.857, 527.456 73.082 C 503.135 74.789, 495.293 75.040, 493.876 74.155 C 491.401 72.609, 489.989 72.700, 487.961 74.535 C 486.744 75.636, 482.815 76.276, 474.054 76.800 L 461.844 77.531 462.564 74.515 C 465.280 63.147, 462.026 62.181, 452.210 71.441 C 445.362 77.900, 440.789 79.848, 439.746 76.750 C 439.425 75.798, 438.892 75.857, 437.504 77 C 435.950 78.279, 429.930 78.490, 396.591 78.435 C 349.627 78.356, 327.632 77.400, 328.373 75.470 C 328.651 74.746, 334.440 66.807, 341.238 57.827 C 360.909 31.843, 378 7.849, 378.633 5.328 C 380.559 -2.349, 372.502 -2.069, 349.500 6.340 M 370.138 1.720 C 367.027 2.311, 341.569 11.572, 326.760 17.500 C 295.204 30.134, 264.252 49.703, 261.545 58.733 C 260.608 61.862, 264.209 65.180, 271.563 67.964 C 283.852 72.615, 282.498 73.199, 299.736 55.814 C 316.230 39.179, 320.580 35.741, 321.639 38.503 C 322.523 40.804, 320.848 43.988, 313.840 53.327 C 308.181 60.870, 309.292 59.932, 328.244 41.166 C 344.918 24.656, 349.224 20.895, 351.140 21.166 C 359.026 22.282, 349.220 42.588, 329.014 66.984 C 322.145 75.276, 321.092 77, 322.893 77 C 324.796 77, 374.037 10.647, 376.045 5.377 C 376.541 4.075, 376.418 2.818, 375.727 2.127 C 374.573 0.973, 374.216 0.947, 370.138 1.720 M 324.507 48.386 C 310.506 62.426, 299.411 74.136, 299.851 74.408 C 300.290 74.679, 304.666 75.195, 309.575 75.552 L 318.500 76.203 322.065 71.852 C 338.561 51.715, 344.634 43.149, 348.298 34.854 C 351.407 27.815, 352.246 24.270, 350.985 23.491 C 350.423 23.143, 338.507 34.346, 324.507 48.386 M 302.975 56.026 C 294.739 64.501, 288 71.787, 288 72.218 C 288 72.648, 289.083 73, 290.406 73 C 294.449 73, 320.737 43.403, 318.596 41.262 C 318.240 40.907, 311.211 47.551, 302.975 56.026 M 454.500 73 L 449.575 78 453.679 78 C 457.537 78, 457.879 77.759, 459.391 73.980 C 462.443 66.353, 461.277 66.120, 454.500 73 M 315.378 83.250 C 307.036 92.029, 277.798 127.330, 273.345 134 C 268.586 141.127, 268.453 141.730, 272.459 138 C 280.438 130.570, 307.151 99.149, 319.430 82.750 C 323.371 77.485, 320.521 77.837, 315.378 83.250 M 447.500 81 C 445.879 81.696, 446.164 81.859, 449 81.859 C 450.925 81.859, 453.400 81.473, 454.500 81 C 456.121 80.304, 455.836 80.141, 453 80.141 C 451.075 80.141, 448.600 80.527, 447.500 81 M 439 82 C 439 82.550, 439.450 83, 440 83 C 440.550 83, 441 82.550, 441 82 C 441 81.450, 440.550 81, 440 81 C 439.450 81, 439 81.450, 439 82 M 473.783 83.750 C 472.944 84.713, 471.701 86.572, 471.023 87.882 C 469.923 90.005, 470.236 89.904, 473.894 86.965 C 476.152 85.150, 478 83.291, 478 82.833 C 478 81.367, 475.361 81.941, 473.783 83.750 M 456.947 86.639 C 455.572 90.255, 455.971 90.295, 460.006 86.950 L 463.500 84.054 460.725 84.027 C 458.634 84.007, 457.703 84.650, 456.947 86.639 M 435.405 87.155 C 434.962 87.870, 435.130 88.038, 435.845 87.595 C 436.998 86.883, 437.393 86, 436.559 86 C 436.316 86, 435.797 86.520, 435.405 87.155 M 413.500 88.135 C 384.985 91.729, 347.381 97.219, 346.716 97.884 C 345.324 99.276, 365.941 99.972, 379 98.975 C 385.875 98.451, 398.700 97.067, 407.500 95.900 C 422.284 93.940, 423.671 93.578, 425.745 91.139 C 426.980 89.688, 427.992 88.162, 427.995 87.750 C 428.001 86.829, 422.758 86.968, 413.500 88.135 M 0.079 140.583 C 0.127 141.748, 0.364 141.985, 0.683 141.188 C 0.972 140.466, 0.936 139.603, 0.604 139.271 C 0.272 138.939, 0.036 139.529, 0.079 140.583 " stroke="none" fill="#000000" fill-rule="evenodd"/>
</svg>