<svg xmlns="http://www.w3.org/2000/svg" width="351" height="181" viewBox="0 0 351 181" version="1.1">
	<path d="M 121 2.088 C 119.625 3.197, 113.515 7.645, 107.422 11.974 C 96.757 19.550, 94.680 21.474, 87 30.889 C 80.455 38.913, 79.102 45.868, 83.314 49.826 C 87.309 53.579, 91.785 52.080, 100.289 44.143 C 105.837 38.965, 117 25.665, 117 24.234 C 117 23.726, 117.900 22.495, 119 21.500 C 120.100 20.505, 121 19.240, 121 18.689 C 121 18.139, 122.022 16.296, 123.270 14.594 C 124.519 12.892, 126.168 10.265, 126.936 8.757 C 128.599 5.486, 131.085 3.741, 137.059 1.650 L 141.500 0.095 132.500 0.084 C 124.959 0.074, 123.095 0.399, 121 2.088 M 156.918 4.247 C 155.907 7.311, 152.995 11.002, 146.465 17.497 C 125.644 38.204, 107.981 71.217, 113.343 79.401 C 119.576 88.914, 132.746 71.607, 153.730 26.327 C 157.285 18.656, 158.745 16.624, 162.873 13.593 C 167.771 9.998, 175.876 6.455, 176.138 7.794 C 176.337 8.815, 176.744 14.037, 176.882 17.350 C 176.956 19.152, 178.251 21.451, 180.400 23.600 C 183.342 26.542, 184.453 26.997, 188.650 26.978 C 193.935 26.954, 200.065 24.578, 205.463 20.460 C 209.673 17.249, 211 17.887, 211 23.125 C 211 27.445, 212.418 31, 214.142 31 C 216.623 31, 228.519 24.514, 233.543 20.421 C 236.529 17.990, 239.344 16, 239.799 16 C 240.254 16, 241.948 17.410, 243.563 19.134 C 250.355 26.382, 254.372 28, 265.581 28 C 271.186 28, 286.735 29.385, 300.135 31.079 C 323.782 34.067, 333.236 34.696, 345.306 34.086 C 350.808 33.807, 351.097 33.664, 350.806 31.360 L 350.500 28.928 331.500 28.586 C 321.050 28.398, 309.800 27.756, 306.500 27.161 C 294.042 24.913, 278.127 23.003, 267.684 22.502 C 255.431 21.914, 252.815 20.932, 246.625 14.599 C 240.408 8.239, 240.034 8.245, 230.193 14.879 C 220.039 21.724, 217.045 23.378, 216.249 22.583 C 215.643 21.976, 217.845 13.796, 220.098 8.284 C 221.308 5.325, 221.222 4.865, 219.025 2.527 L 216.638 -0.015 211.069 5.746 C 195.677 21.669, 179.034 24.954, 182.436 11.398 C 182.767 10.079, 183.748 9, 184.615 9 C 185.482 9, 187.503 8.225, 189.106 7.278 C 191.883 5.638, 192.187 5.646, 195.516 7.439 C 199.978 9.842, 200.928 8.942, 197.392 5.663 C 195.078 3.517, 194.854 2.881, 195.949 1.561 C 197.888 -0.775, 182.787 -0.540, 173 1.919 C 165.072 3.910, 163.741 3.839, 164.651 1.468 C 165.079 0.352, 164.387 0, 161.767 0 C 158.599 0, 158.207 0.343, 156.918 4.247 M 103.949 23.651 C 95.285 31.997, 90.153 38.258, 88.695 42.262 C 86.180 49.171, 108.216 27.277, 112.949 18.164 C 115.370 13.503, 112.957 14.974, 103.949 23.651 M 139.713 36.184 C 130.204 48.852, 116.091 76.438, 124.293 66.327 C 128.416 61.244, 129.697 59.102, 137.868 43.624 C 143.282 33.369, 144 30.474, 139.713 36.184 " stroke="none" fill="#000000" fill-rule="evenodd"/>
</svg>