<svg xmlns="http://www.w3.org/2000/svg" width="351" height="181" viewBox="0 0 351 181" version="1.1">
	<path d="M 108.712 2.750 C 106.752 4.263, 102.384 7.487, 99.005 9.915 C 87.393 18.259, 75.885 32.472, 74.469 40.221 C 73.871 43.489, 74.157 44.311, 76.817 46.971 C 80.606 50.760, 81.348 50.745, 88 46.750 C 95.614 42.177, 116 18.528, 116 14.269 C 116 13.706, 116.634 12.719, 117.408 12.076 C 118.182 11.434, 119.541 9.466, 120.428 7.704 C 121.315 5.942, 122.761 3.488, 123.642 2.250 L 125.244 0 118.759 -0 C 113.216 -0, 111.758 0.399, 108.712 2.750 M 153 1.516 C 153 2.349, 148.947 7.119, 143.994 12.115 C 127.515 28.736, 111.575 53.780, 108.330 68.149 C 106.802 74.916, 106.816 75.278, 108.722 77.839 C 112.120 82.409, 114.553 81.872, 120.858 75.163 C 128.734 66.781, 134.866 55.937, 151.224 21.457 C 155.644 12.140, 156.319 11.267, 161.724 7.873 C 164.901 5.878, 168.904 3.785, 170.621 3.220 L 173.742 2.194 174.256 8.597 C 175.531 24.484, 187.652 27.904, 203.658 16.892 C 209.243 13.049, 209.632 13.171, 210.407 19.012 C 211.420 26.648, 211.788 27.206, 215.303 26.433 C 220.626 25.264, 231.361 18.797, 236.259 13.809 C 237.776 12.264, 239.387 11, 239.838 11 C 240.290 11, 243.426 13.503, 246.807 16.563 C 254.244 23.293, 256.467 24, 270.205 24 C 276.100 24, 288.028 24.923, 296.712 26.050 C 330.400 30.425, 340.767 31.137, 347.807 29.558 C 350.436 28.968, 351.052 28.379, 350.807 26.688 C 350.513 24.652, 349.938 24.553, 337.500 24.398 C 325.671 24.250, 318.888 23.777, 310.500 22.515 C 308.850 22.267, 305.250 21.813, 302.500 21.505 C 299.750 21.198, 295.925 20.673, 294 20.339 C 288.721 19.422, 285.672 19.162, 271.500 18.423 C 256.951 17.665, 254.885 16.906, 247 9.425 C 241.111 3.838, 238.569 3.582, 233.500 8.068 C 229.498 11.610, 216.575 18.975, 215.772 18.172 C 215.084 17.484, 217.666 8.481, 220.482 1.750 C 221.119 0.226, 220.600 -0, 216.469 -0 C 212.395 -0, 211.133 0.530, 207.546 3.750 C 196.289 13.856, 188.705 17.363, 183.114 15.047 C 180.678 14.038, 180 13.148, 180 10.960 C 180 6.515, 180.895 5.229, 185.562 2.970 C 190.179 0.735, 193.035 0.950, 196.250 3.773 C 197.744 5.085, 198 5.097, 198 3.855 C 198 0.332, 195.960 0, 174.300 0 C 155.936 0, 153 0.209, 153 1.516 M 96.821 21.750 C 91.011 27.663, 85.279 34.435, 84.083 36.799 L 81.909 41.098 84.799 39.604 C 90.183 36.820, 109 15.223, 109 11.829 C 109 9.816, 106.735 11.661, 96.821 21.750 M 132.287 38.250 C 125.814 48.067, 116.433 65.767, 117.263 66.597 C 118.011 67.344, 123.188 60.368, 127.724 52.500 C 133.788 41.983, 140.130 29, 139.204 29 C 138.754 29, 135.642 33.163, 132.287 38.250 " stroke="none" fill="#000000" fill-rule="evenodd"/>
</svg>