<svg xmlns="http://www.w3.org/2000/svg" width="351" height="181" viewBox="0 0 351 181" version="1.1">
	<path d="M 134.548 2.782 C 133.445 7.803, 129.618 12.667, 121.937 18.812 C 107.764 30.149, 97.889 42.351, 96.446 50.306 C 95.677 54.552, 98.617 59, 102.194 59 C 109.050 59, 121.581 44.349, 131.496 24.740 C 135.163 17.488, 137.339 14.392, 139.965 12.688 C 146.279 8.591, 163 4.337, 163 6.827 C 163 9.673, 158.702 18.928, 156.379 21.085 C 152.142 25.019, 145.719 33.851, 139.588 44.176 C 128.604 62.672, 124.413 77.413, 128.871 81.871 C 131.863 84.863, 132.801 84.601, 137.614 79.432 C 142.333 74.365, 148.569 62.184, 154.986 45.500 C 157.313 39.450, 159.564 33.600, 159.988 32.500 C 163.272 23.995, 164.571 21.980, 168.840 18.767 C 177.981 11.889, 179.999 11.524, 180.002 16.750 C 180.005 24.545, 184.820 29.954, 191.783 29.985 C 195.743 30.003, 203.588 26.176, 206.924 22.599 C 210.142 19.149, 210.784 19.308, 211.586 23.750 C 212.457 28.575, 213.732 31, 215.397 31 C 218.125 31, 227.181 25.333, 231.969 20.630 L 236.927 15.761 241.714 19.389 C 249.987 25.660, 252.339 26.353, 261.999 25.367 C 266.674 24.890, 277.250 24.820, 285.500 25.212 C 310.378 26.393, 325.149 26.379, 332 25.168 C 335.575 24.537, 340.637 23.763, 343.250 23.449 C 347.210 22.972, 348 22.532, 348 20.799 C 348 18.507, 349.500 18.492, 330.282 20.987 C 325.204 21.647, 314.885 21.799, 303.282 21.387 C 292.952 21.020, 277.075 20.648, 268 20.561 C 252.116 20.407, 251.351 20.305, 247.500 17.830 C 245.300 16.416, 242.643 14.301, 241.595 13.130 C 238.574 9.752, 235.883 10.558, 227 17.500 C 222.425 21.075, 218.058 24, 217.296 24 C 215.656 24, 216.232 19.007, 218.653 12.233 C 220.135 8.087, 220.112 7.910, 217.839 6.016 C 215.232 3.843, 214 3.511, 214 4.981 C 214 7.004, 201.002 19.644, 196.728 21.779 C 189.315 25.481, 185 24.253, 185 18.440 C 185 15.676, 185.499 14.761, 187.403 14.037 C 188.724 13.534, 190.101 12.646, 190.462 12.062 C 191.293 10.716, 196.678 10.669, 197.500 12 C 197.840 12.550, 198.879 12.984, 199.809 12.964 C 201.074 12.937, 200.771 12.332, 198.607 10.563 L 195.715 8.197 197.857 4.731 C 200.511 0.437, 200.517 0, 197.923 0 C 196.781 0, 194.493 1.353, 192.839 3.007 C 189.642 6.205, 187.286 6.203, 188.997 3.005 C 190.442 0.306, 190.287 0, 187.475 0 C 185.779 0, 184.668 0.738, 184.090 2.250 C 182.865 5.453, 180.155 7.468, 175.146 8.899 C 172.751 9.583, 170.164 10.384, 169.396 10.678 C 168.539 11.007, 168 10.558, 168 9.513 C 168 8.578, 168.900 7.577, 170 7.290 C 172.160 6.725, 172.603 5.490, 171 4.500 C 170.450 4.160, 170 3.009, 170 1.941 C 170 -0.158, 165.673 -0.898, 164.500 1 C 164.160 1.550, 161.213 2, 157.952 2 C 154.443 2, 149.874 2.816, 146.761 3.999 C 139.930 6.596, 139.640 6.551, 140.350 3 C 140.906 0.219, 140.738 0, 138.054 0 C 135.701 0, 135.045 0.521, 134.548 2.782 M 119.375 28.250 C 113.919 34.127, 105.925 44.243, 104.388 47.217 C 99.657 56.366, 109.186 48.576, 118.111 35.998 C 125.092 26.161, 125.897 21.225, 119.375 28.250 M 0.116 97.750 L 0 165 2.378 165 C 5.818 165, 7.013 167.020, 7.801 174.164 L 8.500 180.500 12.820 180.811 L 17.141 181.122 16.506 176.311 C 16.157 173.665, 15.662 170.366, 15.407 168.981 C 14.621 164.718, 16.858 163.006, 24.741 161.836 C 36.931 160.027, 38.820 161.803, 39.133 175.363 L 39.263 181 44.287 181 C 48.992 181, 49.212 180.889, 47.766 179.250 C 45.948 177.188, 45.056 173.351, 44.830 166.609 C 44.619 160.353, 45.932 159.364, 55.667 158.452 C 65.527 157.528, 67.710 158.625, 68.505 164.898 C 68.826 167.429, 69.297 170.872, 69.552 172.549 C 70.174 176.644, 68.155 179.102, 63.418 180.015 C 61.224 180.438, 72.151 180.821, 88.250 180.885 C 109.080 180.968, 116.931 180.690, 116.750 179.875 C 116.613 179.256, 117.063 178.544, 117.750 178.292 C 118.437 178.040, 119 178.550, 119 179.425 C 119 180.754, 119.869 180.920, 124.250 180.429 C 127.137 180.106, 134.675 179.261, 141 178.551 L 152.500 177.262 144.500 176.983 C 140.100 176.829, 135.825 176.612, 135 176.500 C 134.175 176.388, 131.538 176.229, 129.139 176.148 C 124.788 176, 124.783 175.996, 126.987 174.212 C 129.103 172.498, 129.154 172.079, 128.200 164.187 C 127.652 159.657, 126.653 155.287, 125.979 154.475 C 123.459 151.438, 106.120 153.176, 104.170 156.661 C 103.683 157.531, 103.446 161.451, 103.643 165.372 L 104.002 172.500 102.272 168 L 100.542 163.500 99.913 167.500 L 99.284 171.500 99.136 168 C 98.895 162.269, 97.051 157.098, 94.825 155.907 C 93.522 155.209, 89.875 154.996, 85.119 155.340 C 78.518 155.816, 78.101 155.757, 82 154.897 C 84.475 154.352, 88.777 154.069, 91.560 154.269 C 95.050 154.520, 97.034 154.189, 97.958 153.200 C 99.114 151.962, 98.359 151.853, 92.398 152.397 C 88.604 152.743, 72.225 153.913, 56 154.996 C 39.775 156.079, 24.621 157.139, 22.325 157.351 C 18.735 157.683, 18.079 157.441, 17.639 155.619 C 17.357 154.453, 13.487 126.500, 9.039 93.500 C 4.590 60.500, 0.789 32.825, 0.591 32 C 0.394 31.175, 0.180 60.763, 0.116 97.750 M 149.794 39.750 C 146.007 44.121, 135 67.206, 135 70.777 C 135 74.742, 143.087 59.785, 149.343 44.250 C 152.061 37.501, 152.102 37.085, 149.794 39.750 M 346.482 130.661 C 345.058 132.085, 345.055 132.404, 346.453 133.948 C 347.304 134.888, 347.939 136.972, 347.864 138.579 C 347.737 141.293, 347.695 141.323, 347.273 139 C 346.491 134.706, 344.143 132.996, 339.095 133.044 C 332.021 133.111, 325.755 134.614, 324.309 136.592 C 322.022 139.720, 323.318 154.939, 325.947 155.816 C 327.896 156.465, 327.021 157.818, 324.995 157.288 C 323.892 157, 322.334 157.308, 321.532 157.973 C 320.731 158.639, 317.358 159.429, 314.037 159.730 C 308.880 160.198, 308 160.565, 308 162.250 C 308 163.927, 308.486 164.136, 311.250 163.644 C 313.038 163.326, 319.113 162.761, 324.750 162.390 C 332.383 161.887, 335 161.368, 335 160.357 C 335 159.611, 335.675 159, 336.500 159 C 337.325 159, 338 159.450, 338 160 C 338 161.131, 341.705 161.275, 347.250 160.358 L 351 159.738 351 144.976 C 351 132.906, 350.732 130.111, 349.529 129.649 C 348.720 129.339, 347.349 129.794, 346.482 130.661 M 341.333 131.667 C 341.700 132.033, 342.300 132.033, 342.667 131.667 C 343.033 131.300, 342.733 131, 342 131 C 341.267 131, 340.967 131.300, 341.333 131.667 M 348 132 C 348 132.733, 348.300 133.033, 348.667 132.667 C 349.033 132.300, 349.033 131.700, 348.667 131.333 C 348.300 130.967, 348 131.267, 348 132 M 304.027 136.134 C 294.658 137.011, 292.458 139.028, 293.397 145.878 C 293.729 148.299, 294 151.566, 294 153.140 C 294 158.644, 296.922 160.132, 306.272 159.390 C 317.236 158.520, 318 157.783, 318 148.068 C 318 136.231, 316.518 134.965, 304.027 136.134 M 330.362 143.452 C 326.602 151.370, 326.640 153, 330.582 153 C 333.005 153, 333.018 152.957, 331.345 150.404 C 329.694 147.884, 329.739 147.635, 332.890 141.904 C 334.675 138.657, 335.633 136, 335.018 136 C 334.404 136, 332.309 139.354, 330.362 143.452 M 336.546 138.571 C 334.003 142.451, 335.999 146, 340.724 146 L 344.110 146 343.805 141.250 C 343.530 136.972, 343.242 136.470, 340.899 136.198 C 338.989 135.976, 337.833 136.606, 336.546 138.571 M 192.888 144.291 C 190.984 145.741, 191.477 151.862, 193.562 152.662 C 194.283 152.939, 194.635 153.916, 194.343 154.833 C 193.925 156.144, 194.020 156.207, 194.792 155.125 C 195.331 154.369, 196.963 153.750, 198.418 153.750 C 202.927 153.750, 204.482 148.482, 201 145 C 198.753 142.753, 195.304 142.451, 192.888 144.291 M 240.400 146.400 C 236.671 150.129, 236.189 152.921, 238.506 157.364 C 240.356 160.912, 240.356 161.074, 238.500 160.362 C 236.549 159.613, 236.564 161.393, 238.523 163.019 C 240.865 164.963, 256.009 163.709, 257.672 161.433 C 259.060 159.536, 258.474 157.589, 256.824 158.609 C 256.140 159.032, 256.020 158.185, 256.473 156.125 C 258.841 145.342, 248.011 138.789, 240.400 146.400 M 270.214 145.759 C 268.075 148.226, 267.853 152.151, 269.677 155.250 C 270.700 156.989, 272 155.790, 272 153.105 C 272 150.443, 272.332 150.178, 276.126 149.817 C 279.907 149.456, 280.334 149.660, 281.239 152.257 C 281.783 153.816, 282.739 154.923, 283.364 154.717 C 285.948 153.867, 285.142 145, 282.481 145 C 281.666 145, 281 144.550, 281 144 C 281 143.450, 279.087 143.028, 276.750 143.061 C 273.448 143.109, 271.990 143.711, 270.214 145.759 M 348.286 147.500 C 348.294 150.250, 348.488 151.256, 348.718 149.736 C 348.947 148.216, 348.941 145.966, 348.704 144.736 C 348.467 143.506, 348.279 144.750, 348.286 147.500 M 210.500 144.724 C 206.289 145.759, 205.746 147.055, 206.209 154.969 C 206.901 166.791, 207.471 167.377, 217.660 166.742 C 229.338 166.013, 230.443 164.947, 229.628 155.200 C 228.724 144.391, 228.354 143.977, 219.715 144.116 C 215.747 144.180, 211.600 144.453, 210.500 144.724 M 333.333 145.667 C 333.700 146.033, 334.300 146.033, 334.667 145.667 C 335.033 145.300, 334.733 145, 334 145 C 333.267 145, 332.967 145.300, 333.333 145.667 M 242.500 147 C 242.160 147.550, 242.359 148, 242.941 148 C 243.523 148, 244 147.550, 244 147 C 244 146.450, 243.802 146, 243.559 146 C 243.316 146, 242.840 146.450, 242.500 147 M 195.079 148.583 C 195.127 149.748, 195.364 149.985, 195.683 149.188 C 195.972 148.466, 195.936 147.603, 195.604 147.271 C 195.272 146.939, 195.036 147.529, 195.079 148.583 M 334.441 149.096 C 333.054 151.340, 336.648 153.390, 340.189 152.375 C 345.520 150.846, 345.158 148, 339.632 148 C 337.149 148, 334.813 148.493, 334.441 149.096 M 216.163 151.012 C 210.936 153.384, 211.165 155.079, 216.901 156.476 C 221.686 157.641, 221.380 159, 216.333 159 C 213.973 159, 213 159.458, 213 160.567 C 213 161.732, 213.578 161.956, 215.250 161.441 C 222.269 159.275, 225.225 155.815, 221 154.710 C 219.900 154.423, 219 153.748, 219 153.210 C 219 152.673, 219.900 151.998, 221 151.710 C 223.177 151.141, 223.778 148.986, 221.750 149.022 C 221.063 149.034, 218.548 149.930, 216.163 151.012 M 253.333 151.667 C 253.700 152.033, 254.300 152.033, 254.667 151.667 C 255.033 151.300, 254.733 151, 254 151 C 253.267 151, 252.967 151.300, 253.333 151.667 M 189 154 C 189 155.100, 189.450 156, 190 156 C 190.550 156, 191 155.100, 191 154 C 191 152.900, 190.550 152, 190 152 C 189.450 152, 189 152.900, 189 154 M 153.074 155.829 C 149.812 156.805, 149.192 158.992, 152.167 159.030 C 154.279 159.058, 154.329 159.160, 152.695 160.111 C 151.462 160.828, 151.197 161.532, 151.860 162.331 C 152.393 162.974, 152.981 163.906, 153.165 164.402 C 153.349 164.899, 156.115 165.407, 159.311 165.532 C 163.727 165.704, 165.002 165.447, 164.624 164.462 C 164.350 163.749, 164.885 162.849, 165.813 162.463 C 167.201 161.885, 166.968 161.517, 164.500 160.385 L 161.500 159.009 164.395 159.255 C 167.506 159.518, 169.079 157.628, 166.554 156.659 C 163.786 155.597, 155.547 155.090, 153.074 155.829 M 98.825 159.674 C 99.251 161.767, 99.503 162.019, 99.794 160.644 C 100.011 159.623, 99.751 158.351, 99.218 157.818 C 98.592 157.192, 98.452 157.849, 98.825 159.674 M 116.750 160.814 C 114.688 162.875, 113 165.187, 113 165.952 C 113 166.717, 112.253 168.168, 111.339 169.177 C 108.618 172.184, 110.662 172.462, 114.116 169.556 C 120.252 164.393, 124.499 156.875, 121.191 157.033 C 120.811 157.051, 118.813 158.752, 116.750 160.814 M 277.500 158.162 C 269.517 159.579, 267.734 160.215, 269.158 161.140 C 270.721 162.154, 283.680 161.165, 286.250 159.835 C 290.611 157.578, 285.882 156.674, 277.500 158.162 M 181.553 159.915 C 181.231 160.436, 181.394 161.125, 181.915 161.447 C 182.436 161.769, 183.125 161.606, 183.447 161.085 C 183.769 160.564, 183.606 159.875, 183.085 159.553 C 182.564 159.231, 181.875 159.394, 181.553 159.915 M 185.173 161.564 C 185.353 163.094, 186.097 164.542, 186.827 164.782 C 187.762 165.089, 188.057 164.397, 187.827 162.436 C 187.647 160.906, 186.903 159.458, 186.173 159.218 C 185.238 158.911, 184.943 159.603, 185.173 161.564 M 50.590 165.653 C 48.223 169.136, 48.181 169.451, 49.681 172.403 C 51.707 176.391, 51.263 176.044, 55.605 177.024 C 60.025 178.021, 61.898 177.213, 64.151 173.339 C 65.685 170.700, 65.685 170.258, 64.151 167.073 C 63.243 165.188, 61.825 163.466, 61 163.247 C 59.766 162.919, 59.745 163.019, 60.878 163.812 C 61.636 164.342, 61.945 165.280, 61.565 165.895 C 61.184 166.511, 61.577 167.284, 62.437 167.614 C 63.296 167.944, 64 169.045, 64 170.062 C 64 171.681, 63.688 171.597, 61.481 169.390 C 60.095 168.004, 59.222 166.450, 59.540 165.935 C 60.295 164.713, 59.381 164.752, 56.684 166.056 L 54.500 167.113 56.736 165.158 C 58.626 163.505, 58.729 163.110, 57.404 162.601 C 54.375 161.439, 53.050 162.033, 50.590 165.653 M 154.333 162.667 C 154.700 163.033, 155.300 163.033, 155.667 162.667 C 156.033 162.300, 155.733 162, 155 162 C 154.267 162, 153.967 162.300, 154.333 162.667 M 160.333 162.667 C 160.700 163.033, 161.300 163.033, 161.667 162.667 C 162.033 162.300, 161.733 162, 161 162 C 160.267 162, 159.967 162.300, 160.333 162.667 M 301.500 163 L 298.500 163.763 301.750 163.882 C 303.538 163.947, 305 163.550, 305 163 C 305 162.450, 304.887 162.053, 304.750 162.118 C 304.613 162.183, 303.150 162.580, 301.500 163 M 245 171.532 L 145.500 180.796 248.479 180.648 L 351.459 180.500 351.789 176.500 C 351.971 174.300, 351.836 170.137, 351.488 167.250 C 350.870 162.113, 350.788 162.003, 347.678 162.135 C 345.930 162.208, 299.725 166.437, 245 171.532 M 24 163.669 C 18.023 166.002, 15.849 174.314, 20.039 178.811 C 22.573 181.532, 30.940 181.917, 33.429 179.429 C 35.701 177.156, 35.358 176.636, 32.777 178.443 C 30.158 180.278, 28.072 180.528, 29.800 178.800 C 31.718 176.882, 31.193 175.735, 28.684 176.365 C 26.224 176.982, 22 174.701, 22 172.755 C 22 172.132, 22.918 172.608, 24.039 173.811 C 26.424 176.372, 26.991 176.459, 29.471 174.645 C 33.056 172.023, 28.682 167.469, 24.868 169.851 C 23.840 170.492, 23 170.611, 23 170.115 C 23 168.790, 25.643 168, 30.082 168 C 34.136 168, 34.980 167.058, 32.655 165.128 C 30.972 163.732, 25.992 162.892, 24 163.669 M 53.200 164.200 C 52.540 164.860, 52 165.985, 52 166.700 C 52 167.415, 51.550 168, 51 168 C 50.450 168, 50 168.659, 50 169.465 C 50 171.024, 53.791 173.542, 54.729 172.605 C 55.035 172.298, 54.547 171.763, 53.643 171.417 C 52.739 171.070, 52 170.358, 52 169.834 C 52 169.310, 52.450 169.160, 53 169.500 C 53.559 169.845, 54 169.077, 54 167.759 C 54 166.462, 54.540 164.860, 55.200 164.200 C 55.867 163.533, 55.956 163, 55.400 163 C 54.850 163, 53.860 163.540, 53.200 164.200 M 81 163.945 C 81 164.465, 82.237 165.497, 83.750 166.239 C 86.006 167.344, 86.454 168.163, 86.246 170.793 C 85.949 174.547, 87.736 175.054, 90.500 172 C 91.709 170.664, 91.888 170, 91.038 170 C 89.804 170, 89.930 168.548, 91.494 164.750 C 92.129 163.206, 91.555 163, 86.607 163 C 83.523 163, 81 163.425, 81 163.945 M 293.333 164.667 C 293.700 165.033, 294.300 165.033, 294.667 164.667 C 295.033 164.300, 294.733 164, 294 164 C 293.267 164, 292.967 164.300, 293.333 164.667 M 1 173.067 C 1 177.861, 1.122 178.097, 3.250 177.443 C 6.337 176.494, 6.282 176.626, 5.511 172.067 C 4.988 168.969, 4.369 168, 2.912 168 C 1.281 168, 1 168.744, 1 173.067 M 55.688 168.646 C 54.383 169.950, 55.006 171, 57.083 171 C 58.247 171, 58.992 170.476, 58.771 169.813 C 58.284 168.351, 56.614 167.719, 55.688 168.646 M 60 172.500 C 60 173.875, 59.523 175, 58.941 175 C 58.359 175, 58.207 174.474, 58.605 173.830 C 59.098 173.032, 58.773 172.873, 57.582 173.330 C 56.622 173.699, 54.947 174, 53.859 174 C 52.772 174, 52.135 174.410, 52.445 174.911 C 52.755 175.412, 54.919 175.750, 57.254 175.661 C 61.096 175.515, 61.530 175.238, 61.816 172.750 C 61.990 171.238, 61.653 170, 61.066 170 C 60.480 170, 60 171.125, 60 172.500 M 203.750 172.662 C 204.438 172.940, 205.563 172.940, 206.250 172.662 C 206.938 172.385, 206.375 172.158, 205 172.158 C 203.625 172.158, 203.063 172.385, 203.750 172.662 M 178.762 174.707 C 180.006 174.946, 181.806 174.937, 182.762 174.687 C 183.718 174.437, 182.700 174.241, 180.500 174.252 C 178.300 174.263, 177.518 174.468, 178.762 174.707 M 169.269 175.693 C 170.242 175.947, 171.592 175.930, 172.269 175.656 C 172.946 175.382, 172.150 175.175, 170.500 175.195 C 168.850 175.215, 168.296 175.439, 169.269 175.693 M 156.813 176.683 C 157.534 176.972, 158.397 176.936, 158.729 176.604 C 159.061 176.272, 158.471 176.036, 157.417 176.079 C 156.252 176.127, 156.015 176.364, 156.813 176.683 M 2.250 180.689 C 3.212 180.941, 4.787 180.941, 5.750 180.689 C 6.713 180.438, 5.925 180.232, 4 180.232 C 2.075 180.232, 1.288 180.438, 2.250 180.689 " stroke="none" fill="#000000" fill-rule="evenodd"/>
</svg>