<svg xmlns="http://www.w3.org/2000/svg" width="387" height="199" viewBox="0 0 387 199" version="1.1">
	<path d="M 2.774 4.753 C 3.064 7.364, 3.876 10.400, 4.577 11.500 C 5.279 12.600, 6.613 16.425, 7.542 20 C 9.616 27.984, 9.008 61.543, 6.554 74.500 C 5.721 78.900, 5.030 85.117, 5.020 88.316 C 5.009 91.514, 4.608 94.889, 4.128 95.816 C 3.648 96.742, 2.947 101.157, 2.570 105.628 L 1.884 113.755 6.192 114.340 C 8.561 114.662, 15 115.189, 20.500 115.511 C 26 115.833, 31.625 116.307, 33 116.564 C 35.179 116.972, 46.207 117.808, 72.500 119.559 C 84.802 120.378, 97.946 121.849, 99.049 122.530 C 99.675 122.917, 99.846 124.425, 99.461 126.178 C 98.866 128.886, 99.024 129.134, 101.152 128.832 C 103.480 128.503, 103.498 128.400, 103.293 116.500 L 103.087 104.500 105.015 110 C 106.076 113.025, 106.956 116.209, 106.972 117.076 C 106.987 117.942, 108.160 119.741, 109.577 121.073 C 111.440 122.823, 112.044 124.250, 111.754 126.222 C 111.534 127.723, 111.728 129.076, 112.187 129.229 C 112.645 129.382, 113.201 130.449, 113.423 131.600 C 113.779 133.447, 119.510 148.101, 121.988 153.500 C 123.362 156.493, 124.988 163.183, 124.994 165.867 C 124.999 167.657, 124.561 168.118, 123.194 167.761 C 121.501 167.318, 121.411 168.205, 121.760 181.894 C 121.965 189.927, 122.313 197.063, 122.535 197.750 C 122.852 198.734, 137.687 199, 192.282 199 L 261.626 199 264.217 196.250 C 267.419 192.851, 274 180.519, 274 177.917 C 274 176.863, 274.398 176, 274.883 176 C 275.369 176, 276.001 174.987, 276.288 173.750 C 276.574 172.512, 277.744 168.377, 278.888 164.561 C 280.819 158.117, 280.850 157.492, 279.329 155.811 C 276.909 153.137, 275.818 153.503, 269.939 158.965 C 267 161.695, 264.500 163.832, 264.382 163.715 C 264.265 163.597, 263.965 161.025, 263.715 158 C 263.218 151.983, 260.713 145, 259.051 145 C 258.473 145, 258 144.100, 258 143 C 258 141.357, 257.331 140.999, 254.250 140.994 C 249.549 140.987, 243.903 139.440, 237.753 136.474 C 235.131 135.208, 231.076 133.857, 228.742 133.470 C 221.195 132.220, 221 131.944, 221 122.512 C 221 117.882, 221.506 112.983, 222.125 111.625 C 223.216 109.229, 223.309 109.210, 225.194 110.966 C 228.520 114.065, 233.214 114.447, 235.207 111.782 C 240.158 105.163, 241.325 103.942, 242.364 104.291 C 242.989 104.500, 243.506 105.391, 243.513 106.269 C 243.531 108.613, 247.804 112.769, 253.237 115.725 C 255.857 117.151, 258 118.751, 258 119.281 C 258 119.811, 258.675 119.685, 259.500 119 C 262.396 116.597, 261.214 113.076, 255.500 107.085 C 249.603 100.903, 249.175 99.930, 251.500 98 C 253.560 96.291, 253.467 96.011, 249.428 91.750 C 245.827 87.950, 246.640 86.432, 250.436 89.869 C 251.571 90.897, 255.200 92.546, 258.500 93.533 C 261.800 94.521, 264.950 95.646, 265.500 96.035 C 268.451 98.122, 277 99.316, 280.811 98.175 C 282.967 97.529, 286.354 97, 288.338 97 C 296.486 97, 312.425 85.997, 315.136 78.502 C 316.706 74.159, 319.295 72.805, 318.435 76.777 C 318.110 78.274, 317.342 80.533, 316.729 81.796 C 315.411 84.507, 319.211 125.611, 320.939 127.339 C 322.886 129.286, 323.022 127.259, 321.941 112.404 C 320.198 88.464, 319.873 76.992, 321.037 80.500 C 321.585 82.150, 322.292 87.100, 322.607 91.500 C 322.923 95.900, 323.825 102.790, 324.612 106.811 C 325.399 110.832, 325.793 114.525, 325.489 115.018 C 325.184 115.511, 325.474 118.839, 326.132 122.414 C 327.560 130.165, 326.594 129.776, 346.174 130.499 C 353.695 130.777, 360.531 131.266, 361.365 131.587 C 364.834 132.918, 366.514 131.606, 366.183 127.825 C 366.009 125.832, 366.347 123.904, 366.933 123.541 C 367.621 123.116, 368 124.310, 368 126.906 C 368 131.951, 369.224 132.665, 379.461 133.593 L 387.268 134.300 386.593 115.900 C 386.222 105.780, 385.457 94.243, 384.893 90.262 C 383.865 83.012, 384.400 79.445, 386.110 82.143 C 387.395 84.171, 387.195 58.876, 385.850 49.250 C 385.216 44.712, 384.268 41, 383.744 41 C 382.556 41, 383.818 56.721, 385.219 59.381 C 386.361 61.547, 385.242 76.689, 384.039 75.355 C 383.123 74.339, 381.198 61.398, 376.922 27.500 C 375.187 13.750, 373.609 1.938, 373.415 1.250 C 373.143 0.286, 366.190 0, 342.972 0 C 326.423 0, 313.098 0.350, 313.363 0.778 C 313.627 1.206, 314.342 5.369, 314.951 10.028 C 315.561 14.688, 316.306 19.737, 316.609 21.250 C 317.115 23.781, 316.910 24, 314.030 24 C 308.835 24, 305 21.434, 305 17.960 C 305 10.762, 297.238 6.521, 279.483 4.020 C 275.642 3.479, 270.136 2.557, 267.246 1.972 C 263.455 1.204, 260.950 1.220, 258.246 2.028 C 256.186 2.645, 251.800 3.524, 248.500 3.982 C 239.889 5.178, 230.872 8.581, 228.164 11.658 C 226.033 14.079, 225.887 14.898, 226.503 21.027 L 227.177 27.743 224.313 28.741 C 222.154 29.494, 220.429 29.341, 217.307 28.120 C 211.789 25.962, 211.452 25.486, 213.365 22.566 C 215.810 18.835, 215.527 11.409, 212.858 9.240 C 211.680 8.283, 209.514 6.283, 208.044 4.796 C 206.574 3.308, 204.153 1.628, 202.664 1.062 C 200.876 0.382, 166.418 0.029, 101.102 0.020 L 2.246 0.006 2.774 4.753 M 378 3 C 378 4.650, 378.450 6, 379 6 C 379.550 6, 380 4.650, 380 3 C 380 1.350, 379.550 0, 379 0 C 378.450 0, 378 1.350, 378 3 M 385.352 5.250 C 385.699 8.138, 386.053 11.850, 386.138 13.500 C 386.224 15.150, 386.587 13.800, 386.945 10.500 C 387.679 3.728, 387.253 0, 385.744 0 C 385.097 0, 384.953 1.928, 385.352 5.250 M 110.208 23.562 C 106.856 25.916, 103.481 31.770, 102.072 37.673 C 100.419 44.600, 101.069 60.568, 103.165 64.500 C 105.113 68.157, 110.113 77.411, 112.348 81.500 C 113.250 83.150, 113.990 85.063, 113.994 85.750 C 114.002 87.346, 115.705 87.384, 116.234 85.799 C 116.545 84.865, 116.798 84.865, 117.376 85.799 C 117.784 86.460, 117.641 87, 117.059 87 C 116.477 87, 116 87.695, 116 88.544 C 116 89.459, 116.712 89.968, 117.750 89.794 C 119.151 89.559, 119.561 90.347, 119.807 93.750 C 119.977 96.088, 120.539 98, 121.057 98 C 121.576 98, 122 99.800, 122 102 C 122 104.309, 122.478 106, 123.131 106 C 123.858 106, 124.065 107.211, 123.711 109.391 C 122.806 114.971, 123.975 120.760, 126.120 121.321 C 127.410 121.659, 128 122.715, 128 124.688 C 128 127.018, 128.465 127.602, 130.450 127.767 C 131.798 127.878, 133.175 127.525, 133.511 126.982 C 134.789 124.915, 138.061 127.908, 137.401 130.540 C 136.872 132.645, 137.124 132.989, 139.142 132.921 C 140.439 132.878, 140.938 132.615, 140.250 132.338 C 139.563 132.060, 139 130.656, 139 129.217 C 139 127.181, 139.267 126.867, 140.200 127.800 C 143.797 131.397, 146.108 128.142, 145.266 120.665 C 144.735 115.960, 146.327 113.102, 150.265 111.686 C 151.236 111.337, 152.462 109.915, 152.990 108.526 C 153.518 107.137, 154.643 106, 155.489 106 C 158.285 106, 164 102.075, 164 100.155 C 164 99.611, 164.563 98.933, 165.250 98.648 C 166.117 98.288, 165.815 97.527, 164.264 96.166 C 162.374 94.505, 162.271 94.110, 163.596 93.601 C 165.750 92.775, 165.701 92.748, 166.310 95.079 C 167.145 98.269, 171.407 97.304, 171.808 93.834 C 172.040 91.834, 173.039 90.784, 175.808 89.635 L 179.500 88.103 176.309 88.052 C 174.554 88.023, 172.851 88.432, 172.525 88.960 C 172.178 89.521, 166.637 89.786, 159.216 89.597 C 139.417 89.094, 129.504 84.233, 119.632 70.188 C 116.738 66.070, 116 64.091, 116 60.445 C 116 57.928, 115.458 54.886, 114.796 53.684 C 114.096 52.414, 113.364 45.319, 113.046 36.727 L 112.500 21.953 110.208 23.562 M 298.441 28.501 C 296.532 29.976, 296.538 30.033, 298.750 31.911 C 303.596 36.024, 299.596 41.970, 291.936 42.041 C 286.091 42.095, 279 48.003, 279 52.818 C 279 56.359, 278.500 56.578, 268.262 57.529 L 261.023 58.201 259.973 62.100 C 259.236 64.836, 258.375 66, 257.087 66 C 254.881 66, 246.803 63.236, 246.041 62.221 C 245.305 61.240, 239.213 57, 238.540 57 C 237.478 57, 238.027 62.730, 239.602 68.068 C 241.495 74.489, 246.247 80.645, 253.354 85.884 C 260.955 91.486, 262.342 92.047, 272.350 93.571 C 283.986 95.343, 288.958 95.352, 292.596 93.609 C 294.193 92.844, 297.075 91.479, 299 90.576 C 304.065 88.199, 305.138 87.207, 310.404 80.038 C 317.705 70.098, 318.216 68.358, 318.264 53.275 C 318.305 40.337, 318.244 39.960, 315.461 35.944 C 313.778 33.515, 310.668 30.852, 307.842 29.420 C 302.265 26.594, 301.060 26.476, 298.441 28.501 M 119.750 31.241 C 118.331 33.421, 118.003 36.160, 118.018 45.715 L 118.036 57.500 122.502 65.164 C 126.859 72.640, 131.379 77.350, 136.815 80.080 C 138.292 80.821, 140.694 82.232, 142.154 83.214 C 147.305 86.680, 171.503 84.853, 179.776 80.373 C 188.296 75.760, 197 63.644, 197 56.397 C 197 55.556, 197.486 53.960, 198.081 52.849 C 200.116 49.046, 198.214 49.890, 190.859 56.053 L 183.500 62.221 177 61.560 C 172.308 61.084, 168.719 59.922, 164.097 57.385 C 160.234 55.264, 155.672 53.642, 152.597 53.295 C 146.861 52.648, 144.803 51.755, 137.095 46.565 C 126.648 39.532, 122.144 35.162, 121.810 31.733 L 121.500 28.552 119.750 31.241 M 224.910 36.832 C 225.450 37.840, 226.590 39.245, 227.445 39.955 C 228.300 40.664, 229.036 42.202, 229.079 43.372 C 229.127 44.655, 229.374 44.958, 229.701 44.134 C 230.687 41.654, 227.849 35, 225.805 35 C 224.297 35, 224.122 35.359, 224.910 36.832 M 282.238 36.162 C 281.557 36.843, 281 38.081, 281 38.914 C 281 40.225, 281.218 40.211, 282.616 38.813 C 283.505 37.924, 284.062 36.685, 283.854 36.061 C 283.580 35.241, 283.131 35.269, 282.238 36.162 M 216.387 40.709 C 213.150 44.194, 210.660 49.019, 208.717 55.573 C 207.889 58.364, 206.077 62.889, 204.688 65.629 C 203.300 68.369, 201.843 72.320, 201.451 74.410 C 200.967 76.987, 199.333 79.615, 196.369 82.578 C 192.657 86.290, 192 87.553, 192 90.974 C 192 95.693, 193.505 96.165, 197.987 92.852 C 200.624 90.902, 201.613 90.773, 208.696 91.457 C 228.785 93.399, 228.476 93.333, 228.817 95.729 C 229.120 97.863, 229.240 97.889, 231.604 96.340 C 233.945 94.806, 234.206 94.845, 236.590 97.084 C 238.713 99.079, 239.251 99.218, 240.037 97.974 C 241.653 95.418, 241.090 91.694, 238.147 85.473 C 235.368 79.598, 231.805 67.759, 228.494 53.396 C 226.681 45.533, 224.176 40.700, 221.043 39.023 C 219.304 38.092, 218.573 38.357, 216.387 40.709 M 238.577 76.875 C 237.787 78.154, 240.632 84, 242.045 84 C 243.316 84, 242.172 78.949, 240.494 77.154 C 239.644 76.244, 239.023 76.153, 238.577 76.875 M 73.500 87 C 73.101 87.646, 73.224 88.624, 73.774 89.174 C 74.441 89.841, 75.016 89.783, 75.500 89 C 75.899 88.354, 75.776 87.376, 75.226 86.826 C 74.559 86.159, 73.984 86.217, 73.500 87 M 123.576 95.553 C 122.903 98.234, 123.492 100, 125.059 100 C 126.257 100, 126.299 94.303, 125.107 93.566 C 124.615 93.262, 123.927 94.156, 123.576 95.553 M 159 96.878 C 159 97.910, 159.759 99.373, 160.687 100.128 C 162.172 101.336, 162.292 101.281, 161.687 99.668 C 161.309 98.661, 161 97.198, 161 96.418 C 161 95.638, 160.550 95, 160 95 C 159.450 95, 159 95.845, 159 96.878 M 253.332 99.576 C 252.333 101.694, 252.429 102, 254.094 102 C 256.052 102, 256.543 100.402, 255.223 98.326 C 254.723 97.540, 254.098 97.954, 253.332 99.576 M 330 102 C 330 102.733, 330.300 103.033, 330.667 102.667 C 331.033 102.300, 331.033 101.700, 330.667 101.333 C 330.300 100.967, 330 101.267, 330 102 M 330 105 C 330 105.733, 330.300 106.033, 330.667 105.667 C 331.033 105.300, 331.033 104.700, 330.667 104.333 C 330.300 103.967, 330 104.267, 330 105 M 176.242 106.196 C 169.302 107.462, 165.412 112.011, 166.349 117.764 C 168.616 131.673, 169.217 132.508, 177.711 133.570 C 185.010 134.482, 191.918 133.573, 197.185 131.009 C 200.562 129.365, 202.533 129.047, 206.250 129.548 C 210.833 130.165, 211 130.099, 211 127.659 C 211 124.453, 209.333 120, 208.133 120 C 207.629 120, 206.497 121.800, 205.617 124 C 203.689 128.817, 200.712 129.311, 196.247 125.554 C 192.684 122.556, 188 113.783, 188 110.108 C 188 105.015, 186.132 104.393, 176.242 106.196 M 310.145 107.087 C 309.634 108.414, 308.007 112.506, 306.529 116.181 C 302.840 125.354, 303.257 127.411, 308.886 127.814 C 311.298 127.987, 313.591 127.762, 313.981 127.314 C 315.003 126.141, 313.337 106.937, 312.107 105.707 C 311.397 104.997, 310.784 105.427, 310.145 107.087 M 29.272 110 C 29.272 112.475, 29.467 113.487, 29.706 112.250 C 29.944 111.013, 29.944 108.987, 29.706 107.750 C 29.467 106.513, 29.272 107.525, 29.272 110 M 21.232 110 C 21.232 111.925, 21.438 112.713, 21.689 111.750 C 21.941 110.787, 21.941 109.213, 21.689 108.250 C 21.438 107.287, 21.232 108.075, 21.232 110 M 262.355 121.755 C 260.133 122.124, 259.434 124.034, 258.335 132.750 C 257.827 136.771, 257.935 137, 260.328 137 C 263.347 137, 266 134.613, 266 131.897 C 266 130.819, 266.675 129.678, 267.500 129.362 C 271.274 127.913, 266.629 121.046, 262.355 121.755 M 242.246 149.154 C 240.304 151.096, 240.765 153.645, 243.611 156.698 C 245.047 158.239, 246.611 160.512, 247.086 161.750 C 247.562 162.988, 248.628 164, 249.456 164 C 251.599 164, 252.400 159.695, 251.378 153.673 C 250.530 148.677, 250.380 148.490, 246.996 148.204 C 245.068 148.042, 242.931 148.469, 242.246 149.154 M 238.023 179.977 C 233.947 184.053, 236.175 196, 241.011 196 C 242.086 196, 244.409 194.034, 246.373 191.462 C 249.438 187.449, 249.732 186.553, 248.919 183.719 C 248.414 181.956, 248 180.398, 248 180.257 C 248 180.115, 247.070 180, 245.934 180 C 244.798 180, 243.008 179.540, 241.957 178.977 C 240.468 178.180, 239.599 178.401, 238.023 179.977 " stroke="none" fill="#000000" fill-rule="evenodd"/>
</svg>