<svg xmlns="http://www.w3.org/2000/svg" width="351" height="181" viewBox="0 0 351 181" version="1.1">
	<path d="M 170.185 18.441 C 163.869 22.907, 154.654 34.917, 148.795 46.318 C 147.048 49.718, 144.639 53.850, 143.441 55.500 C 140.788 59.154, 136.716 67.300, 135.109 72.168 C 133.524 76.973, 131.346 78.749, 124.906 80.489 C 121.933 81.293, 118.487 82.239, 117.250 82.592 C 115.441 83.108, 115 82.832, 115 81.186 C 115 79.832, 115.761 79.023, 117.250 78.796 C 118.651 78.582, 119.354 77.895, 119.113 76.976 C 117.818 72.031, 118.063 69.922, 121.003 60.703 C 122.793 55.091, 124.650 50.072, 125.129 49.550 C 126.754 47.778, 126.009 46.320, 122.518 44.440 C 120.326 43.259, 118.721 42.923, 118.187 43.532 C 117.180 44.681, 114 56.212, 114 58.716 C 114 59.676, 113.038 62.782, 111.863 65.617 L 109.726 70.773 100.613 71.212 C 95.601 71.454, 88.918 72.485, 85.762 73.505 C 82.606 74.524, 79.785 75.118, 79.492 74.826 C 79.200 74.533, 79.687 71.190, 80.574 67.397 C 82.426 59.479, 82.781 37.924, 81.124 34 C 78.887 28.702, 77.191 27.494, 72.154 27.607 C 63.197 27.809, 60.679 29.234, 48.365 41.066 C 45.541 43.780, 42.805 46, 42.284 46 C 41.764 46, 40.712 47.170, 39.946 48.601 C 38.696 50.936, 38.750 51.344, 40.468 52.601 C 43.937 55.137, 45.901 54.102, 56.590 44.100 C 66.477 34.849, 70.407 32.452, 73.649 33.695 C 77.489 35.169, 77.150 52.649, 73.022 66 C 70.116 75.399, 65.040 85, 62.977 85 C 61.720 85, 43.222 99.414, 37.618 104.760 C 31.912 110.204, 21.970 123.618, 20.915 127.296 C 19.180 133.345, 19.765 136.625, 23.077 139.411 C 27.155 142.843, 29.131 142.684, 35.582 138.402 C 42.978 133.492, 61 112.185, 61 108.349 C 61 107.607, 61.426 107, 61.947 107 C 62.468 107, 63.978 104.862, 65.302 102.250 C 67.821 97.279, 70.911 91.717, 73.108 88.198 C 75.966 83.622, 91.865 77.972, 105.500 76.688 C 110.324 76.234, 105.243 88.996, 97.675 96.338 C 91.161 102.659, 84.537 110.694, 79.819 118 C 69.342 134.222, 66.763 138.556, 63.911 144.732 C 55.870 162.148, 56.066 175, 64.373 175 C 70.643 175, 85.628 151.869, 96.665 125.154 C 107.274 99.472, 108.215 97.823, 114.824 93.310 C 117.946 91.179, 122.202 88.662, 124.282 87.718 C 128.636 85.742, 128.583 85.673, 129.353 94.327 C 130.826 110.878, 146.245 113.766, 162.412 100.519 C 164.774 98.583, 166.940 97, 167.225 97 C 167.511 97, 168.090 98.912, 168.512 101.250 C 169.870 108.773, 170.022 109.322, 171.134 110.662 C 172.515 112.325, 176.244 111.468, 181.230 108.340 C 183.282 107.053, 185.193 106, 185.478 106 C 186.703 106, 195.665 98.900, 197.390 96.561 C 200.026 92.989, 201.832 93.328, 207.941 98.542 C 217.060 106.326, 217.129 106.344, 239 106.584 C 249.725 106.702, 260.750 107.067, 263.500 107.397 C 282.614 109.686, 303.664 111.183, 310.047 110.709 C 323.291 109.723, 339.195 107.997, 340.082 107.449 C 341.563 106.534, 341.135 102.989, 339.468 102.349 C 338.625 102.026, 333.562 102.324, 328.218 103.012 C 316.132 104.569, 291.418 104.623, 277.223 103.125 C 271.325 102.503, 262.148 101.545, 256.830 100.997 C 251.511 100.449, 241.361 100, 234.275 100 C 221.571 100, 221.323 99.957, 216.446 96.878 C 213.726 95.161, 209.598 92.011, 207.272 89.878 C 204.947 87.745, 202.636 86, 202.137 86 C 200.577 86, 196.591 88.361, 192.007 92 C 184.908 97.636, 176.592 102.779, 175.350 102.303 C 174.052 101.806, 174.731 98.500, 178.231 88.258 L 180.364 82.016 178.008 79.508 C 175.003 76.310, 173.532 76.346, 171.297 79.674 C 165.418 88.423, 148.664 101, 142.887 101 C 139.658 101, 136.166 98.796, 135.558 96.375 C 134.407 91.790, 135.915 89.281, 141.529 86.441 L 146.878 83.735 150.939 85.851 C 155.686 88.325, 156.919 86.304, 152.450 83.375 C 149.312 81.319, 149.384 81.132, 157.554 70 C 164.307 60.799, 167.751 55.252, 170.589 49 C 180.493 27.186, 181.686 23.339, 180.250 17.848 C 179.562 15.215, 174.311 15.525, 170.185 18.441 M 169.643 28.500 C 168.818 29.325, 167.661 30, 167.071 30 C 166.482 30, 166 30.716, 166 31.592 C 166 32.467, 165.080 34.380, 163.957 35.842 C 160.213 40.711, 155 48.938, 155 49.976 C 155 50.539, 154.660 51, 154.244 51 C 153.828 51, 152.886 52.360, 152.150 54.022 C 151.415 55.684, 150.274 57.597, 149.617 58.272 C 148.277 59.647, 141 74.707, 141 76.104 C 141 78.412, 144.226 76.552, 147.683 72.251 C 149.782 69.640, 152.063 66.907, 152.750 66.180 C 153.438 65.452, 154 64.455, 154 63.963 C 154 63.472, 155.261 61.591, 156.803 59.785 C 158.345 57.978, 161.332 53.166, 163.441 49.091 C 165.551 45.016, 168.339 40.115, 169.638 38.201 C 170.937 36.287, 172.031 34.221, 172.069 33.610 C 172.107 33, 172.301 31.262, 172.501 29.750 C 172.905 26.685, 171.899 26.244, 169.643 28.500 M 237.423 52.339 C 236.672 54.296, 237.667 56, 239.559 56 C 241.439 56, 241.410 53.585, 239.512 52.010 C 238.309 51.012, 237.909 51.075, 237.423 52.339 M 220.500 54.819 C 218.300 55.795, 214.540 57.223, 212.144 57.992 C 204.886 60.322, 205.667 64.627, 213.150 63.539 C 218.400 62.776, 227.784 59.005, 228.395 57.414 C 228.893 56.116, 226.594 52.976, 225.179 53.022 C 224.805 53.034, 222.700 53.843, 220.500 54.819 M 52.072 102.174 C 41.633 111.662, 27.583 129.916, 29.355 131.688 C 30.385 132.718, 35.390 128.340, 42.007 120.619 C 45.835 116.154, 49.603 111.758, 50.381 110.852 C 52.116 108.832, 57 100.574, 57 99.662 C 57 98.326, 55.419 99.132, 52.072 102.174 M 89.312 119.250 C 82.999 126.225, 66.220 159, 68.962 159 C 70.033 159, 76.493 148.777, 81.286 139.500 C 85.206 131.911, 92.053 117, 91.617 117 C 91.470 117, 90.432 118.013, 89.312 119.250 " stroke="none" fill="#000000" fill-rule="evenodd"/>
</svg>