<svg xmlns="http://www.w3.org/2000/svg" width="351" height="181" viewBox="0 0 351 181" version="1.1">
	<path d="M 157.703 4.989 C 150.989 11.125, 137 31.742, 137 35.500 C 137 36.263, 136.176 37.475, 135.170 38.193 C 133.223 39.583, 126.564 52.639, 125.448 57.253 C 124.624 60.656, 119.635 65, 116.549 65 C 115.285 65, 112.338 65.675, 110 66.500 C 104.633 68.393, 104.801 68.420, 105.180 65.750 C 105.366 64.444, 106.204 63.495, 107.179 63.487 C 109.667 63.468, 110.448 62.245, 109.049 60.559 C 107.451 58.633, 108.426 52.466, 111.601 44.422 C 112.920 41.078, 114 37.392, 114 36.231 C 114 35.069, 114.450 33.840, 115 33.500 C 116.708 32.444, 116.119 31.272, 112.835 29.193 C 108.314 26.330, 107.515 27.110, 105.557 36.298 C 103.731 44.865, 101.286 52.770, 99.917 54.534 C 99.475 55.102, 95.340 55.640, 90.727 55.730 C 85.827 55.825, 80.503 56.572, 77.920 57.528 C 71.755 59.810, 68.997 60.379, 69.018 59.367 C 69.029 58.890, 69.701 54.746, 70.512 50.158 C 71.324 45.570, 71.950 37.020, 71.903 31.158 C 71.829 21.756, 71.530 19.999, 69.367 16.250 C 67.711 13.378, 66.200 11.967, 64.708 11.899 C 59.715 11.670, 55.417 12.255, 54.096 13.343 C 53.324 13.979, 52.537 14.387, 52.346 14.250 C 50.760 13.105, 48.230 15.115, 30.373 31.705 C 27.373 34.492, 27.391 35.555, 30.474 37.575 C 32.789 39.092, 33.157 39.066, 36.224 37.164 C 38.026 36.046, 41.075 33.487, 43 31.477 C 48.750 25.472, 57.349 18.318, 59.699 17.584 C 61.225 17.108, 62.501 17.501, 63.868 18.868 C 67.661 22.661, 65.961 43.486, 60.722 57.405 C 58.313 63.807, 55.354 67.312, 47.133 73.500 C 23.353 91.400, 11.637 104.829, 10.354 115.655 C 9.800 120.334, 9.953 120.783, 12.960 123.313 C 16.804 126.548, 18.798 126.654, 24.179 123.909 C 32.384 119.723, 45.486 103.858, 55.486 86 C 58.720 80.225, 62.173 74.321, 63.159 72.879 C 66.416 68.119, 81.193 62.639, 93 61.814 C 97.380 61.508, 97.492 61.574, 97.211 64.259 C 96.633 69.771, 92.977 75.671, 85.050 83.882 C 64.765 104.897, 45.263 142.851, 49.099 153.853 C 50.288 157.266, 53.944 159.470, 56.873 158.540 C 62.627 156.714, 79.062 129.958, 87.919 108 C 88.695 106.075, 89.994 102.925, 90.804 101 C 91.614 99.075, 92.607 96.600, 93.009 95.500 C 96.353 86.365, 99.382 82.021, 105.321 77.845 C 110.504 74.200, 117.925 70.543, 118.610 71.295 C 118.713 71.408, 119.080 74.358, 119.426 77.852 C 120.280 86.490, 122.158 89.740, 127.710 92.196 C 134.436 95.171, 142.694 92.887, 153.489 85.068 C 158.308 81.578, 158.696 81.751, 159.570 87.773 C 160.635 95.118, 161.560 96.305, 165.621 95.543 C 170.452 94.637, 180.565 88.506, 186.551 82.855 C 192.298 77.429, 191.945 77.372, 201.252 85.237 C 206.553 89.717, 213.325 92.326, 217.602 91.537 C 221.991 90.728, 238.214 90.680, 246.500 91.452 C 250.350 91.810, 257.775 92.517, 263 93.021 C 289.438 95.575, 298.721 95.770, 315.500 94.127 C 331.823 92.528, 332 92.476, 332 89.337 L 332 86.712 323.750 87.466 C 319.212 87.881, 314.150 88.364, 312.500 88.539 C 310.850 88.715, 303.200 88.860, 295.500 88.862 C 287.800 88.863, 280.375 88.908, 279 88.961 C 277.625 89.014, 273.575 88.620, 270 88.086 C 256.387 86.053, 240.965 84.839, 226.500 84.662 C 209.653 84.456, 208.734 84.145, 198.774 75.300 C 192.674 69.882, 190.685 69.884, 184.551 75.316 C 180.787 78.649, 167.723 87, 166.272 87 C 164.573 87, 165.133 83.506, 168.195 75 C 169.284 71.975, 170.385 68.820, 170.642 67.989 C 170.898 67.158, 169.769 65.195, 168.132 63.627 L 165.156 60.775 162.828 63.482 C 151.162 77.044, 140.221 85, 133.238 85 C 127.891 85, 125.998 83.483, 126.015 79.215 C 126.034 74.702, 126.752 73.495, 130 72.517 C 131.375 72.102, 133.257 71.099, 134.183 70.288 C 136.137 68.574, 141.173 69.299, 143.053 71.564 C 144.580 73.404, 146 73.405, 146 71.568 C 146 70.781, 144.652 69.177, 143.005 68.004 L 140.010 65.871 144.671 59.185 C 147.235 55.508, 150.563 50.925, 152.067 49 C 156.269 43.621, 165.068 25.923, 169.718 13.500 C 170.952 10.204, 171.404 7.137, 171.045 4.500 C 170.534 0.746, 170.278 0.481, 166.888 0.198 C 163.747 -0.065, 162.547 0.561, 157.703 4.989 M 159 13.345 C 157.625 14.599, 156.413 16.084, 156.306 16.644 C 156.200 17.204, 153.639 21.337, 150.616 25.828 C 147.592 30.319, 143.855 36.245, 142.309 38.996 C 140.764 41.747, 139.162 43.998, 138.750 43.999 C 138.338 44, 138 44.463, 138 45.028 C 138 45.594, 136.425 49.376, 134.500 53.432 C 130.552 61.752, 130.489 62, 132.336 62 C 134.044 62, 140.203 55.150, 144.413 48.568 C 146.209 45.762, 148.363 42.780, 149.201 41.942 C 150.039 41.104, 152.170 37.286, 153.937 33.459 C 155.703 29.632, 157.973 25.600, 158.981 24.500 C 160.969 22.329, 164.208 12.541, 163.254 11.587 C 162.316 10.649, 161.654 10.922, 159 13.345 M 228.336 37.567 C 227.502 39.739, 229.618 41.782, 231.133 40.267 C 232.413 38.987, 231.620 36, 230 36 C 229.415 36, 228.667 36.705, 228.336 37.567 M 209.500 40.120 C 199.180 44.361, 198 45.002, 198 46.367 C 198 48.579, 201.698 48.977, 207.321 47.371 C 210.170 46.557, 213.486 45.643, 214.690 45.340 C 218.239 44.448, 220.538 41.353, 219.016 39.519 C 217.361 37.525, 215.533 37.641, 209.500 40.120 M 37.362 91.642 C 28.248 101.163, 20.709 110.997, 19.492 114.951 L 18.738 117.402 21.557 115.554 C 26.386 112.391, 45 90.801, 45 88.365 C 45 87.976, 45.704 86.879, 46.565 85.928 C 47.686 84.690, 47.805 83.998, 46.986 83.491 C 46.300 83.068, 42.441 86.336, 37.362 91.642 M 75.842 109.263 C 73.280 113.243, 69.307 120.325, 67.013 125 C 64.719 129.675, 61.978 135.136, 60.921 137.136 C 57.949 142.760, 58.459 144.972, 61.750 140.733 C 65.100 136.419, 66.915 133.258, 73.087 121 C 82.923 101.461, 84.106 96.424, 75.842 109.263 " stroke="none" fill="#000000" fill-rule="evenodd"/>
</svg>